<svg width="523" height="123" viewBox="0 0 523 123" fill="none" xmlns="http://www.w3.org/2000/svg">
<path d="M383.418 28.6514C383.419 29.5043 383.255 30.3489 382.937 31.137C382.62 31.9251 382.153 32.6412 381.566 33.2444C380.978 33.8476 380.28 34.3261 379.513 34.6526C378.745 34.9791 377.921 35.1471 377.09 35.1471C376.259 35.1471 375.436 34.9791 374.668 34.6526C373.9 34.3261 373.202 33.8476 372.615 33.2444C372.027 32.6412 371.561 31.9251 371.243 31.137C370.925 30.3489 370.762 29.5043 370.762 28.6514C370.762 27.7986 370.925 26.954 371.243 26.1659C371.561 25.3778 372.027 24.6617 372.615 24.0585C373.202 23.4553 373.9 22.9768 374.668 22.6503C375.436 22.3238 376.259 22.1558 377.09 22.1558C377.921 22.1558 378.745 22.3238 379.513 22.6503C380.28 22.9768 380.978 23.4553 381.566 24.0585C382.153 24.6617 382.62 25.3778 382.937 26.1659C383.255 26.954 383.419 27.7986 383.418 28.6514Z" fill="black"/>
<path d="M495.947 57.1689H479.84V73.606H495.947V57.1689Z" fill="black"/>
<path d="M176.498 57.1689H160.391V73.606H176.498V57.1689Z" fill="black"/>
<path d="M128.186 57.1689H112.079V73.606H128.186V57.1689Z" fill="black"/>
<path d="M80.607 57.1689H64.5V73.606H80.607V57.1689Z" fill="black"/>
<path d="M31.3331 57.1689H15.2261V73.606H31.3331V57.1689Z" fill="black"/>
<path d="M53.9091 24.3601H55.8201C68.1631 24.3601 73.9161 30.9631 76.3201 48.5721L80.1421 48.4031L79.6321 20.4651H16.8241L16.2051 48.4031L19.8831 48.5721C20.5201 41.9691 21.2841 38.4131 22.9421 34.8571C25.8731 28.2531 31.9901 24.3601 39.5081 24.3601H42.1841V85.1441C42.1841 91.5781 41.8021 93.6101 40.2741 95.1341C38.9991 96.3191 36.4501 96.8271 33.5181 96.8271H30.5871V100.89H65.5061V96.8271H62.5571C59.6441 96.8271 57.0771 96.3181 55.8211 95.1341C54.2921 93.6101 53.9101 91.5771 53.9101 85.1441V24.3601" fill="black"/>
<path d="M220.053 100.891L240.403 29.8849V85.6059C240.403 91.6869 240.057 93.8239 238.677 95.3029C237.641 96.4529 235.24 96.9469 232.578 96.9469H231.543V100.891H260.308V96.9469H258.811C256.165 96.9469 253.749 96.4539 252.714 95.3029C251.332 93.8239 250.987 91.6869 250.987 85.6059V38.1039C250.987 32.0219 251.332 29.7209 252.714 28.2419C253.864 27.2559 256.165 26.5979 258.811 26.5979H260.308V22.8169H237.987L221.188 80.1809L204.751 22.8169H182.545V26.5979H184.615C190.714 26.5979 191.864 27.9129 191.864 35.8029V81.0029C191.864 88.2349 191.519 91.1939 190.483 93.3309C189.333 95.4679 186.9 96.9469 184.385 96.9469H182.544V100.891H206.245V96.9469H204.75C201.759 96.9469 199.342 95.7959 197.945 93.4949C196.581 91.1939 196.236 89.0569 196.236 81.0029V29.8859L216.469 100.892H220.053" fill="black"/>
<path d="M285.044 45.335C270.777 45.335 261.458 56.512 261.458 74.1C261.458 91.03 270.777 102.536 284.684 102.536C298.719 102.536 308.039 91.03 308.039 73.936C308.039 57.005 298.719 45.335 285.044 45.335ZM284.584 49.115C288.71 49.115 292.276 51.745 294.232 56.183C296.073 60.292 296.878 65.881 296.878 73.935C296.878 90.535 292.851 98.753 284.683 98.753C276.53 98.753 272.601 90.534 272.601 73.77C272.601 65.88 273.422 60.292 275.263 56.183C277.089 51.91 280.787 49.115 284.584 49.115Z" fill="black"/>
<path d="M327.155 21.9951L310.816 22.8171V26.4331H311.605C316.438 26.4331 317.49 28.0771 317.49 35.8021V89.2211C317.49 96.1241 317.26 97.9331 316.34 100.891H320.137C322.996 96.1241 323.703 95.3031 324.854 95.3031C325.413 95.3031 325.971 95.4671 326.794 96.2891C332.447 100.891 334.863 101.877 340.041 101.877C352.45 101.877 361.425 89.8781 361.425 72.7841C361.425 56.6761 353.124 45.8281 340.715 45.8281C334.272 45.8281 329.571 48.9511 327.155 54.5391V21.9951ZM339.088 49.9371C346.469 49.9371 350.265 57.8271 350.265 73.2771C350.265 89.5491 346.353 97.9321 338.874 97.9321C330.59 97.9321 326.233 89.3841 326.233 73.7701C326.233 65.8801 327.27 60.4571 329.686 56.3471C331.855 52.4031 335.554 49.9371 339.088 49.9371Z" fill="black"/>
<path d="M382.711 46.157L365.929 47.143V50.759H367.195C372.01 50.759 373.047 52.403 373.047 59.964V87.742C373.047 95.304 372.011 97.112 367.195 97.112H365.37V100.891H390.421V97.112H388.612C383.763 97.112 382.712 95.467 382.712 87.742V46.157" fill="black"/>
<path d="M411.819 21.9951L395.037 22.8171V26.4331H396.288C401.12 26.4331 402.155 28.0771 402.155 35.8021V87.7411C402.155 95.4671 401.12 97.1111 396.288 97.1111H394.463V100.89H419.528V97.1111H417.687C412.838 97.1111 411.819 95.4661 411.819 87.7411V21.9951Z" fill="black"/>
<path d="M465.306 73.606C464.746 56.183 456.462 45.335 443.938 45.335C431.84 45.335 423.112 57.169 423.112 73.606C423.112 91.193 431.725 102.535 445.072 102.535C453.701 102.535 459.684 97.932 464.632 87.741L461.181 85.933C457.154 94.48 453.127 97.932 446.913 97.932C437.824 97.932 433.929 90.701 433.812 73.606H465.306ZM433.928 69.496C434.027 57.169 438.036 49.444 444.496 49.444C450.939 49.444 454.735 57.005 454.621 69.496H433.928Z" fill="black"/>
<path d="M501.988 43.9951C502.96 43.9951 503.909 44.2441 504.835 44.7431C505.761 45.2421 506.482 45.9561 506.998 46.8841C507.516 47.8121 507.774 48.7801 507.774 49.7881C507.774 50.7861 507.519 51.7451 507.009 52.6651C506.501 53.5861 505.786 54.3011 504.869 54.8101C503.95 55.3191 502.99 55.5741 501.987 55.5741C500.984 55.5741 500.024 55.3201 499.105 54.8101C498.187 54.3011 497.471 53.5871 496.961 52.6651C496.449 51.7451 496.193 50.7861 496.193 49.7881C496.193 48.7801 496.452 47.8121 496.972 46.8841C497.491 45.9561 498.214 45.2411 499.138 44.7431C500.068 44.2441 501.017 43.9951 501.988 43.9951ZM501.988 44.9591C501.176 44.9591 500.384 45.1671 499.616 45.5841C498.847 46.0011 498.245 46.5951 497.81 47.3691C497.376 48.1431 497.16 48.9501 497.16 49.7871C497.16 50.6201 497.373 51.4181 497.8 52.1821C498.226 52.9461 498.823 53.5411 499.589 53.9681C500.356 54.3951 501.156 54.6081 501.988 54.6081C502.822 54.6081 503.62 54.3951 504.387 53.9681C505.153 53.5421 505.748 52.9471 506.172 52.1821C506.596 51.4181 506.809 50.6201 506.809 49.7871C506.809 48.9501 506.593 48.1431 506.161 47.3691C505.729 46.5961 505.128 46.0011 504.356 45.5841C503.585 45.1671 502.796 44.9591 501.988 44.9591ZM499.448 52.9821V46.7521H501.593C502.324 46.7521 502.856 46.8101 503.183 46.9251C503.512 47.0401 503.773 47.2411 503.967 47.5281C504.162 47.8141 504.26 48.1191 504.26 48.4411C504.26 48.8961 504.096 49.2931 503.77 49.6301C503.446 49.9671 503.013 50.1571 502.474 50.1981C502.695 50.2901 502.871 50.4001 503.004 50.5281C503.256 50.7731 503.563 51.1851 503.926 51.7631L504.687 52.9831H503.454L502.899 52.0001C502.464 51.2311 502.115 50.7491 501.852 50.5531C501.668 50.4081 501.399 50.3361 501.046 50.3361H500.454V52.9831H499.448V52.9821ZM500.455 49.4801H501.681C502.265 49.4801 502.664 49.3931 502.878 49.2181C503.092 49.0431 503.197 48.8121 503.197 48.5241C503.197 48.3391 503.146 48.1731 503.043 48.0271C502.94 47.8811 502.799 47.7711 502.615 47.6991C502.433 47.6271 502.095 47.5921 501.602 47.5921H500.455V49.4801Z" fill="black"/>
</svg>
