<svg width="1894" height="372" viewBox="0 0 1894 372" fill="none" xmlns="http://www.w3.org/2000/svg">
<g clip-path="url(#clip0_159_4912)">
<path d="M154.1 198.67V0H0V177.4C0 302.37 60.2 352.06 145.2 348.32C199.1 345.95 229.03 316.82 236.28 294.14C182.24 294.14 154.07 261.93 154.07 198.67H154.1ZM295.64 0C287.848 -1.10683e-07 280.132 1.53495 272.933 4.51718C265.734 7.49942 259.193 11.8705 253.684 17.3809C248.174 22.8912 243.804 29.4329 240.823 36.6323C237.842 43.8317 236.309 51.5478 236.31 59.34V294.14H243.25C324.52 294.14 390.4 228.26 390.4 146.99V0H295.64Z" fill="black"/>
<path d="M1067.83 302.4H1123.56V46.5601H1067.83V302.4ZM1386.9 194.49C1379.88 183.89 1370.28 176.09 1358.87 170.59C1349.06 165.85 1338.67 162.56 1328.09 160.09C1311.66 156.25 1295.11 152.81 1278.6 149.23C1266.97 146.71 1255.56 143.53 1244.8 138.29C1230.68 131.43 1227.68 116.54 1233.1 104.76C1236.54 97.2601 1242.99 93.1101 1250.3 90.1901C1263.63 84.8701 1277.57 84.2401 1291.64 85.6101C1301.93 86.6101 1311.45 89.8401 1319.7 96.2401C1327.28 102.1 1332.04 109.78 1334.2 119.04C1335.04 122.69 1335.46 126.43 1336.06 130.14L1389.56 122.93C1389 115.62 1387.4 106.49 1384.53 98.5001C1378.54 81.8801 1368.12 68.7501 1353.39 59.0501C1338.3 49.1101 1321.47 44.1101 1303.64 42.0501C1292.21 40.8012 1280.7 40.5236 1269.23 41.2201C1258.53 41.7701 1247.96 43.1901 1237.57 45.9001C1223.26 49.6001 1209.8 55.0801 1198.22 64.5001C1187.36 73.3001 1179.66 84.2701 1176.05 97.9001C1173.48 107.62 1173.56 117.46 1174.82 127.37C1175.92 135.97 1178.32 144.21 1182.94 151.54C1190.36 163.24 1200.64 172.01 1213.11 177.87C1219.63 180.92 1226.52 183.27 1233.41 185.47C1250.9 191.07 1269 194.07 1286.93 197.77C1298.51 200.17 1309.95 202.97 1320.84 207.69C1325.54 209.75 1330.09 212.11 1333.54 216.09C1338.09 221.34 1339.32 227.52 1338.56 234.34C1337.69 242.17 1334.35 248.56 1328.04 253.33C1320.05 259.37 1310.68 261.63 1301.01 262.9C1291.54 264.1 1282.02 263.98 1272.52 262.95C1261.61 261.77 1251.19 258.98 1241.86 253.01C1232.99 247.33 1227.18 239.39 1224.58 229.18C1223.79 226.08 1223.37 222.9 1222.76 219.61L1168.27 226.89C1168.72 234.18 1170.16 243.23 1172.53 249.99C1178.71 267.66 1190.36 280.7 1206.11 290.25C1222.66 300.27 1241.02 304.69 1260.03 306.79C1271.71 308.09 1283.44 308.27 1295.17 307.69C1306.9 307.11 1318.52 305.82 1329.94 302.93C1347.37 298.51 1363.36 291.41 1376.28 278.47C1384.11 270.654 1389.75 260.91 1392.61 250.22C1395.66 239.198 1396.34 227.657 1394.63 216.35C1393.48 208.56 1391.29 201.09 1386.93 194.52L1386.9 194.49ZM1892.73 216.35C1891.57 208.56 1889.39 201.09 1885.02 194.52C1878 183.92 1868.4 176.11 1856.99 170.62C1847.18 165.88 1836.79 162.59 1826.22 160.12C1809.78 156.28 1793.24 152.83 1776.72 149.26C1765.09 146.73 1753.68 143.55 1742.92 138.31C1728.8 131.45 1725.8 116.56 1731.22 104.78C1734.66 97.2801 1741.11 93.1301 1748.42 90.2101C1761.75 84.9001 1775.69 84.2701 1789.76 85.6401C1800.05 86.6401 1809.57 89.8701 1817.83 96.2601C1825.2 101.911 1830.33 109.988 1832.32 119.06C1833.16 122.72 1833.58 126.46 1834.18 130.16L1887.68 122.96C1887.06 114.632 1885.37 106.418 1882.65 98.5201C1876.66 81.9001 1866.24 68.7801 1851.52 59.0701C1836.42 49.1301 1819.59 44.1401 1801.76 42.0801C1790.34 40.8278 1778.83 40.5468 1767.36 41.2401C1756.67 41.7176 1746.06 43.2857 1735.69 45.9201C1721.38 49.6301 1707.92 55.1001 1696.35 64.5201C1685.48 73.3201 1677.78 84.3001 1674.18 97.9201C1671.6 107.65 1671.68 117.49 1672.94 127.4C1674.04 136 1676.44 144.23 1681.07 151.57C1688.48 163.27 1698.77 172.03 1711.23 177.9C1717.75 180.95 1724.64 183.29 1731.54 185.5C1749.02 191.1 1767.12 194.1 1785.06 197.8C1796.63 200.2 1808.07 202.99 1818.96 207.72C1823.66 209.77 1828.21 212.14 1831.66 216.12C1836.21 221.37 1837.45 227.55 1836.68 234.36C1835.81 242.2 1832.47 248.59 1826.16 253.36C1818.17 259.4 1808.8 261.66 1799.13 262.92C1789.66 264.13 1780.14 264 1770.64 262.98C1759.73 261.79 1749.31 259.01 1739.98 253.04C1731.11 247.35 1725.3 239.41 1722.7 229.21C1721.91 226.11 1721.49 222.92 1720.88 219.63L1666.39 226.92C1666.84 234.21 1668.28 243.25 1670.65 250.02C1676.83 267.69 1688.48 280.73 1704.24 290.28C1720.78 300.3 1739.14 304.72 1758.15 306.82C1769.82 308.05 1781.57 308.351 1793.29 307.72C1805.02 307.13 1816.64 305.85 1828.06 302.95C1845.49 298.53 1861.48 291.43 1874.4 278.49C1882.24 270.68 1887.87 260.938 1890.73 250.25C1893.79 239.227 1894.48 227.679 1892.75 216.37L1892.73 216.35ZM1009.05 107.36C1004.79 92.6601 997.56 79.7201 986.22 69.2301C972.42 56.4401 956 48.7601 937.82 44.5801C919.63 40.3801 898.75 39.6901 880.21 41.5101C866.66 42.8501 853.51 45.8701 841.07 51.4701C822.19 59.9401 806.77 72.4301 796.89 90.9701C792.112 99.8623 788.966 109.538 787.6 119.54C786.5 127.77 785.66 136.11 785.63 144.42C785.45 196.15 785.55 247.88 785.55 299.62V302.45H841.91V299.09C841.91 248.91 841.89 198.96 841.94 148.81C841.94 138.81 842.65 128.85 845.96 119.27C851.41 103.6 862.22 93.6801 878.31 89.7101C891.75 86.3701 907.79 86.5101 921.15 89.9501C937.25 94.0801 948.09 104.05 953.37 119.93C956.5 129.33 957.32 138.97 957.32 148.76V302.43H1013.7V144C1013.7 131.6 1012.55 119.35 1009.08 107.41L1009.05 107.36ZM740.19 46.4801H683.82V49.8401C683.82 100.02 683.85 149.97 683.8 200.12C683.8 210.12 683.09 220.08 679.77 229.66C674.33 245.3 663.52 255.24 647.43 259.22C633.99 262.56 612.95 262.42 599.56 258.98C583.46 254.85 572.63 244.88 567.34 229C564.21 219.6 563.4 209.96 563.4 200.17V46.5001H507.01V204.93C507.01 217.32 508.17 229.58 511.64 241.52C515.9 256.22 523.14 269.16 534.47 279.65C548.27 292.43 564.68 300.11 582.86 304.29C601.06 308.5 626.96 309.19 645.5 307.37C659.05 306.03 672.2 303.01 684.64 297.4C703.52 288.94 718.94 276.44 728.82 257.9C733.597 249.011 736.743 239.338 738.11 229.34C739.21 221.11 740.05 212.77 740.08 204.46C740.26 152.73 740.16 101 740.16 49.2601V46.4201L740.19 46.4801ZM1577.6 97.9401C1576.37 101.31 1572.08 113.86 1564.74 135.61C1549.75 180.01 1539.18 211.82 1533.05 231.11H1530.76C1521.58 199.28 1507.64 155.33 1488.97 99.3101L1471.53 46.5101H1410.91L1498.62 282.49L1494.49 291.22C1488.37 305 1481.63 314.26 1474.3 319C1466.96 323.76 1455.62 326.12 1440.32 326.12C1433.89 326.164 1427.46 326.007 1421.04 325.65V370.65C1432.66 371.25 1440.79 371.57 1445.37 371.57C1466.17 371.57 1483.55 369.12 1497.47 364.23C1511.4 359.34 1523.4 350.93 1533.5 338.98C1543.6 327.04 1552.77 310.21 1561.03 288.48L1654.24 46.5301H1595.01L1577.58 97.9401H1577.6Z" fill="black"/>
</g>
<defs>
<clipPath id="clip0_159_4912">
<rect width="1893.7" height="371.57" fill="white"/>
</clipPath>
</defs>
</svg>
