<svg width="800" height="800" viewBox="0 0 800 800" fill="none" xmlns="http://www.w3.org/2000/svg">
<path d="M630.1 198.467L572.333 434.333L514.367 198.467H344.4V285.567C324 209.333 252 190.2 185.267 189.133C104 188.033 18.7667 223.367 15.6333 331.2H128.067C128.067 298.633 152.967 280 181 280.433C215.4 280.167 231.267 294.9 232.1 317.9C230.9 337.8 219.2 351.7 181.267 351.7H143.433V430H177.767C197.233 430 224.4 440.633 225.467 468.5C226.8 501.667 203.733 516.333 175.433 516.6C124.867 514.833 116.667 475.766 116.667 442.266H0C0.5 464.833 -5.03333 611.967 177.9 610.9C265.533 611.733 326.7 574.733 344.667 523.8V601.867H459.833V347.467L522.067 601.933H622.667L685.167 347.733V602.2H800V198.467H630.1ZM344.733 433.8C330.433 404.033 310.267 391 298.867 386.9C322.667 376.267 335.2 361.867 344.733 333.1V433.8Z" fill="black"/>
</svg>
