<svg width="807" height="557" viewBox="0 0 807 557" fill="none" xmlns="http://www.w3.org/2000/svg">
<g clip-path="url(#clip0_159_4939)">
<path d="M18.975 132.462L188.516 0L806.988 59.08L760.152 556.074L140.646 498.025L0 333.508L18.975 132.462Z" fill="black"/>
<path fill-rule="evenodd" clip-rule="evenodd" d="M29.1541 137.616L192.541 11.2739L795.682 69.1959L751.031 544.768L145.831 486.848L10.2441 329.482L29.1541 137.616Z" fill="white"/>
<path fill-rule="evenodd" clip-rule="evenodd" d="M308.221 115.195L445.131 128.275L441.199 169.282L379.542 163.387L378.286 176.595L434.532 181.975L430.924 219.57L375.001 214.254L373.584 229.167L436.625 235.193L432.889 274.169L294.982 260.963L308.221 115.195Z" fill="black"/>
<path fill-rule="evenodd" clip-rule="evenodd" d="M465.553 225.98L439.653 264.186C439.653 264.186 472.189 281.677 517.323 285.605C562.389 289.602 595.441 276.682 606.04 255.101C616.669 233.582 603.944 209.098 583.071 202.303C562.165 195.537 525.923 188.322 529.692 181.136C533.462 173.986 556.206 175.467 570.024 181.234C583.844 187.001 587.614 190.447 587.614 190.447L611.388 156.463C611.388 156.463 586.131 137.973 538.871 135.17C491.583 132.367 456.824 156.044 454.408 178.045C451.961 200.048 466.101 213.03 487.589 220.892C487.589 220.892 505.821 226.754 519.576 229.75C533.299 232.779 542.029 241.83 525.633 245.051C509.234 248.27 475.506 236.16 465.553 225.98Z" fill="black"/>
<path fill-rule="evenodd" clip-rule="evenodd" d="M653.715 196.409L613.414 192.576L617.926 145.124L773.133 159.941L768.621 207.393L728.289 203.527L718.883 302.131L645.309 295.113L653.715 196.409Z" fill="black"/>
<path fill-rule="evenodd" clip-rule="evenodd" d="M319.658 281.806L390.882 288.249L383.311 370.974C383.311 370.974 376.289 390.818 399.998 393.105C423.741 395.361 422.68 374.036 422.68 374.036L430.473 292.373L501.987 299.202L492.807 395.457C492.807 395.457 484.367 447.998 396.909 439.654C309.479 431.308 310.671 376.033 310.671 376.033L319.658 281.806Z" fill="black"/>
<path fill-rule="evenodd" clip-rule="evenodd" d="M584.005 307.063L604.428 347.297L630.779 311.541L713.793 319.431L636.352 396.167L630.359 458.853L557.525 451.894L563.387 390.237L501.277 299.492L584.005 307.063Z" fill="black"/>
<path fill-rule="evenodd" clip-rule="evenodd" d="M273.688 349.294C273.688 349.294 303.681 343.398 302.907 312.763C302.136 282.097 240.927 274.494 240.927 274.494L139.906 264.474L126.118 410.758C126.118 410.758 206.749 419.23 230.231 421.129C253.716 422.999 301.037 421 305.709 390.75C310.348 360.474 273.688 349.294 273.688 349.294ZM204.719 307.417C204.719 307.417 235.742 304.55 234.034 319.108C232.293 333.637 202.818 327.065 202.818 327.065L204.719 307.417ZM198.244 382.021L199.854 358.25C199.854 358.25 238.638 356.8 237.382 373.455C236.126 390.11 198.244 382.021 198.244 382.021Z" fill="black"/>
<path d="M258.934 181.686C258.934 181.686 288.927 175.791 288.153 145.155C287.38 114.522 226.173 106.852 226.173 106.852L125.118 96.8682L111.364 243.15C111.364 243.15 191.995 251.622 215.446 253.492C238.929 255.424 286.252 253.394 290.924 223.145C295.593 192.865 258.934 181.686 258.934 181.686ZM190.577 140.195C190.577 140.195 221.632 137.36 219.924 151.888C218.186 166.416 188.708 159.844 188.708 159.844L190.577 140.195ZM184.134 214.834L185.744 191.027C185.744 191.027 224.498 189.611 223.275 206.265C222.019 222.888 184.134 214.834 184.134 214.834Z" fill="black"/>
<path d="M89.8131 244.373C88.3951 259.484 74.9951 270.533 59.9181 269.114C44.8111 267.666 33.7601 254.263 35.1771 239.156C36.6281 224.079 50.0281 213.031 65.1371 214.448C80.2131 215.896 91.2621 229.298 89.8131 244.373Z" fill="black"/>
<path d="M79.7921 243.44C78.8931 252.975 70.4211 259.966 60.8521 259.063C51.3161 258.161 44.3271 249.657 45.2281 240.123C46.1621 230.587 54.6361 223.597 64.1701 224.499C73.7051 225.4 80.6951 233.874 79.7921 243.44Z" fill="white"/>
<path d="M714.342 333.798C714.955 327.323 720.721 322.558 727.196 323.169C733.671 323.781 738.471 329.577 737.858 336.054C737.248 342.529 731.447 347.297 724.972 346.685C718.497 346.041 713.729 340.273 714.342 333.798ZM734.957 335.764C735.506 330.256 731.898 325.906 727 325.456C722.071 324.973 717.723 328.581 717.208 334.058C716.661 339.566 720.27 343.913 725.164 344.397C730.094 344.849 734.441 341.275 734.957 335.764ZM722.201 327.776L727.13 328.257C730.353 328.547 731.961 329.836 731.705 332.639C731.48 334.927 730.062 335.894 727.872 335.894L730.899 342.046L728.321 341.818L725.455 335.731L723.941 335.602L723.392 341.336L720.913 341.109L722.201 327.776ZM724.135 333.701L726.293 333.929C727.774 334.059 729.061 333.992 729.225 332.188C729.386 330.643 727.999 330.257 726.71 330.127L724.488 329.902L724.135 333.701Z" fill="black"/>
</g>
<defs>
<clipPath id="clip0_159_4939">
<rect width="806.988" height="556.074" fill="white"/>
</clipPath>
</defs>
</svg>
