<svg width="1200" height="800" viewBox="0 0 1200 800" fill="none" xmlns="http://www.w3.org/2000/svg">
<path fill-rule="evenodd" clip-rule="evenodd" d="M402.908 361.394C430.084 361.394 446.615 366.174 454.933 376.382C459.466 381.936 461.753 389.321 461.807 398.675C461.832 403.872 461.173 409.673 459.842 416.128L441.214 506.108C438.634 518.549 437.078 528.075 437.121 535.969C437.138 538.319 437.341 540.663 437.727 542.98H386.76C386.745 542.428 386.665 541.893 386.665 541.325C386.644 537.594 386.932 533.652 387.256 529.575L387.791 522.194H384.969L383.854 523.952C374.71 538.654 353.939 547.752 336.142 547.752C321.391 547.752 310.823 543.978 304.736 536.496C298.015 528.257 296.414 515.35 299.962 498.153C306.913 464.563 322.187 450.348 360.492 441.75C360.514 441.75 385.928 435.955 385.928 435.955C401.016 432.624 408.29 425.97 410.985 412.959C412.455 405.819 411.66 400.302 408.608 396.538C405.777 393.078 401.233 391.326 395.114 391.326C381.494 391.326 374.244 398.361 369.758 415.872H324.278C336.504 368.633 378.489 361.394 402.908 361.394ZM402.343 454.032C402.343 454.032 401.317 454.969 399.344 455.745C396.124 456.985 388.978 458.152 384.561 459.261C381.137 460.114 377.275 461.101 373.105 462.852C361.995 467.56 356.269 475.261 353.322 489.423C351.605 497.709 352.611 504.485 356.265 508.971C358.99 512.333 363.027 514.095 367.893 514.095C387.759 514.095 393.988 495.095 396.946 480.778L402.484 454.029H402.343V454.032ZM585.033 527.099C574.278 513.897 572.17 493.133 579.591 456.142C595.787 375.612 626.398 361.394 653.03 361.394C665.69 361.394 684.763 366.084 687.003 388.304L687.358 391.76H691.055C691.055 391.76 695.381 370.858 696.329 366.196H745.842C744.041 374.869 709.071 542.98 709.071 542.98C700.34 585.213 673.224 606.251 623.477 606.251C577.388 606.251 570.551 579.075 569.515 570.66C569.122 567.466 570.194 558.037 570.194 558.037H618.374V558.075C618.4 562.368 618.722 568.704 620.173 570.484C622.168 572.942 623.825 575.833 631.468 575.833C641.613 575.833 651.328 572.906 656.065 550.002L664.265 510.332H660.31L659.216 512.197C649.351 529.28 630.974 537.914 611.597 537.914C599.666 537.914 590.963 534.4 585.033 527.099ZM634.196 452.23C628.777 478.44 629.013 488.518 634.314 495.024C636.947 498.272 640.884 499.828 646.327 499.828C661.376 499.828 668.731 490.689 676.375 453.799C681.836 427.38 682.403 410.597 677.178 404.16C674.612 401.035 670.853 399.481 665.671 399.481C650.12 399.481 641.817 415.341 634.196 452.23ZM825.239 366.196C823.476 374.729 789.852 537.332 788.668 542.98H735.067C736.842 534.443 770.503 371.842 771.677 366.196H825.239ZM923.677 307.218C907.424 385.807 891.164 464.394 874.895 542.98H821.29C823.079 534.282 868.886 312.939 870.087 307.218H923.677ZM1009.62 307.218C1007.8 315.892 962.007 537.235 960.797 542.98H907.217C909.027 534.282 954.83 312.939 956.014 307.218H1009.62H1009.62ZM592.666 361.394C575.101 361.394 554.199 373.684 543.991 393.446L542.934 395.487H539.009C539.009 395.487 543.729 372.696 545.06 366.196H540.469V366.174H489.486C489.847 368.382 490.077 370.692 490.092 373.214C490.124 378.884 489.312 385.437 487.9 393.304C477.965 441.312 458.247 536.494 456.917 542.98H510.543C513.967 526.374 530.696 445.428 530.696 445.428C535.742 421.075 550.023 409.74 575.591 409.74C580.004 409.74 583.883 409.987 587.694 410.546C588.887 404.805 596.378 368.633 597.865 361.394H592.666ZM149.007 533.777C135.616 517.343 135.025 487.129 146.969 429.46C166.04 337.264 193.619 306.152 256.244 306.152C281.263 306.152 298.832 312.118 308.426 323.89C314.634 331.497 317.776 341.88 317.847 354.905C317.89 361.998 317.022 369.891 315.236 378.516L312.678 390.845H259.901C259.901 390.845 263.812 365.682 263.78 360.133C263.744 353.889 263.501 350.508 261.115 347.357C258.639 344.094 254.959 341.483 249.19 341.483C225.868 341.483 218.203 363.698 204.918 427.895C194.605 477.728 190.917 500.599 198.882 510.37C201.904 514.059 206.453 515.853 212.832 515.853C231.2 515.853 238.439 500.105 247.669 456.297H300.829C299.782 461.369 298.039 469.752 298.039 469.752C286.862 523.776 255.196 551.191 203.908 551.191C176.134 551.191 158.69 545.639 149.007 533.777ZM1021 307.093H1037.09L1036.55 309.651H1029.92L1025.17 332.7H1022.32L1027.09 309.653H1020.48L1021 307.093ZM1056.55 307.093H1061.54L1056.23 332.7H1053.4L1057.77 311.6C1057.99 310.504 1058.27 309.449 1058.44 308.359H1058.37C1057.75 309.864 1057.32 310.816 1056.87 311.804L1047.18 332.7H1043.81L1042.83 311.495C1042.77 310.451 1042.74 309.405 1042.73 308.359H1042.67C1042.44 309.449 1042.27 310.573 1042.04 311.673L1037.69 332.7H1034.86L1040.16 307.093H1045.18L1046.06 327.073C1046.11 328.161 1046.03 329.218 1045.82 330.863H1045.89C1046.34 329.565 1046.77 328.299 1047.33 327.037L1056.55 307.093Z" fill="black"/>
<path fill-rule="evenodd" clip-rule="evenodd" d="M829.828 345.337C834.041 248.173 716.879 175.228 607.533 197.912C498.243 220.584 445.416 315.74 431.608 345.137H449.485C473.411 304.894 497.637 273.656 538.926 262.019C565.154 254.623 585.762 256.319 636.491 284.622C659.855 297.662 712.731 336.862 769.536 344.692C794.215 348.098 829.828 345.337 829.828 345.337Z" fill="black"/>
</svg>
