<svg width="616" height="193" viewBox="0 0 616 193" fill="none" xmlns="http://www.w3.org/2000/svg">
<g clip-path="url(#clip0_159_4937)">
<path d="M430.88 14.8101C430.88 14.8101 419.35 19.4001 405.94 34.1801C392.53 48.9601 384.72 65.5801 390.5 70.0001C392.72 71.6801 397.84 72.0001 407.13 63.6001C415.703 56.1563 422.433 46.825 426.79 36.3401C432.79 21.7101 430.88 14.9901 430.88 14.8301M504.27 41.4001C489.37 33.7601 478.48 24.4001 467.15 18.6101C456.34 13.0601 449.35 10.7401 440.61 11.9101C439.39 12.1274 438.188 12.4281 437.01 12.8101C437.01 12.8101 441.51 28.1801 423.6 54.0001C405.46 80.1801 389 80.0001 384.32 72.8101C379.42 65.2201 385.75 49.7501 396.32 35.9801C407.39 21.5801 426.83 9.64006 426.83 9.64006C426.83 9.64006 420.63 5.85005 405.41 14.4801C390.56 22.8601 365 42.8601 341.28 76.59C317.56 110.32 312.86 128.88 309.46 143.49C306.06 158.1 309.15 173.75 325.35 173.75C341.55 173.75 360.41 149.04 365.73 140.45C375.62 124.45 382.07 99.9101 368.61 103.28C361.98 104.94 356.61 112.28 353.22 119.35C351.079 123.891 349.443 128.653 348.34 133.55C343.636 135.489 339.219 138.059 335.21 141.19C330.75 144.494 326.581 148.174 322.75 152.19C322.75 152.19 322.81 140.51 332.12 121.61C341.43 102.71 358.52 94.0801 368.2 93.2701C376.92 92.5701 388.27 99.9701 378.65 127.27C369.03 154.57 340.65 187.76 310.84 188.17C283.33 188.55 265.33 153.44 303.62 92.1701C346 24.48 395.71 3.71006 411.85 1.40006C427.99 -0.909944 433.24 6.21006 433.24 6.21006C442.955 2.22411 453.449 0.494031 463.93 1.15006C483.64 2.48006 498.88 16.4301 519 26.2301C513.77 31.2301 508.78 36.4801 504.28 41.4001M592.82 18.6101C579.16 27.3701 560.26 35.3101 542.1 33.6101C537.5 38.3601 532.58 43.8601 527.65 49.8601C559.14 56.0901 586.73 36.5801 601.4 19.9701C606.748 13.9982 611.342 7.39204 615.08 0.300056C608.401 7.25652 600.926 13.4022 592.81 18.6101M550.88 107.33C551.118 106.915 551.313 106.476 551.46 106.02C551.366 105.299 551.028 104.632 550.502 104.129C549.976 103.627 549.294 103.32 548.57 103.26C545.57 103.12 541.48 103.69 530.75 115.57C521.848 125.381 514.187 136.249 507.94 147.93C501.8 159.15 499.31 167.51 502.84 169.67C503.987 170.264 505.316 170.4 506.56 170.05C508.95 169.48 511.66 167.24 515.78 162.47C517.71 160.23 519.85 157.06 522.41 153.55C529.51 143.89 547.35 113.48 550.88 107.33ZM439.42 120.25C441.21 115.57 443.49 106.38 438.75 102.77C433.66 98.9401 420.68 107.93 420.61 117.15C420.52 126.59 429.75 130.86 431.96 131.46C433.22 131.8 433.66 131.75 434.27 130.74C436.227 127.367 437.948 123.862 439.42 120.25ZM429.6 137.42C426.383 135.935 423.382 134.021 420.68 131.73C417.969 129.457 415.704 126.7 414 123.6C413.82 123.3 413.64 123.53 413.44 123.8C413.24 124.07 412.44 124.8 405.52 134.94C398.6 145.08 387.97 166.09 397.59 169.67C403.75 171.96 414 161.17 419.59 154.02C423.398 149.029 426.85 143.776 429.92 138.3C430.21 137.69 429.92 137.55 429.61 137.42M538.73 161.69C536.12 165.87 533.14 173.89 541.73 168.9C552.24 162.83 567.21 140.12 567.21 140.12H574C567.821 149.62 560.942 158.645 553.42 167.12C542.77 178.92 529.78 189.64 520.63 188.58C509.94 187.33 513.29 173.3 513.29 173.3C513.29 173.3 498 189.58 487.42 188.41C473.13 186.83 477.49 169.17 477.49 169.17C477.49 169.17 461.33 189 450.32 188.39C433.06 187.39 437.4 166.39 442.2 151.6C444.77 143.69 447.15 137.48 447.15 137.48C447.15 137.48 445.44 137.93 441.76 138.48C439.84 138.75 436.34 138.95 436.34 138.95C436.34 138.95 429.15 151.63 423.4 159.25C417.65 166.87 393.21 193.14 378.83 187.88C365.53 183.02 369.93 162.66 377.67 146.48C388.97 122.89 420.75 89.0001 439.08 93.4801C458.08 98.0901 439.51 132.76 439.51 132.76C439.51 132.76 439.51 132.89 439.71 132.98C440.09 133.12 441.08 133.23 443.37 132.78C445.743 132.296 448.068 131.603 450.32 130.71C450.32 130.71 469.42 90.7101 490.52 64.5401C511.62 38.3701 553.71 -6.69994 570.23 4.20006C574.23 6.88006 572.43 16.1101 566.99 27.3101C564.539 28.1059 562.049 28.7735 559.53 29.3101C563.17 22.7001 565.58 17.1301 566.3 13.2401C568.79 -0.279945 537.22 28.2401 514.66 58.8801C501.071 77.3516 488.998 96.892 478.56 117.31C482.635 114.825 486.525 112.047 490.2 109C500.263 100.656 509.826 91.7274 518.84 82.2601C527.52 73.374 535.661 63.9772 543.22 54.1201C545.621 54.0039 548.015 53.7569 550.39 53.3801C542.148 64.5663 533.161 75.1837 523.49 85.1601C514.49 94.2601 504.75 104.05 496.29 111.16C488.733 117.586 480.763 123.509 472.43 128.89C472.43 128.89 452.7 168.68 463.43 171.23C469.74 172.75 482.2 153.56 482.2 153.56C482.2 153.56 498.46 128.75 508.26 117.56C521.63 102.36 533.14 93.5601 544.64 93.4001C551.34 93.2801 555.29 100.4 555.29 100.4L558.44 95.5201H577.84C577.84 95.5201 541.61 157 538.71 161.63M592.81 18.6101C579.15 27.3701 560.25 35.3101 542.09 33.6101C537.49 38.3601 532.57 43.8601 527.64 49.8601C559.13 56.0901 586.72 36.5801 601.39 19.9701C606.741 13.9987 611.339 7.39257 615.08 0.300056C608.401 7.25652 600.926 13.4022 592.81 18.6101ZM320.36 48.7701H301.91L291.48 65.6201H309.93L320.36 48.7701ZM233 107.12C240.85 96.3601 262.51 58.6501 262.51 58.6501C262.418 57.9298 262.082 57.2627 261.558 56.7603C261.034 56.2579 260.353 55.9507 259.63 55.8901C256.63 55.7501 251.63 56.7601 241.7 69.1901C231.77 81.6201 224.06 91.5101 218.44 101.8C212.28 113.03 209.59 120.95 213.13 123.1C214.278 123.676 215.598 123.811 216.84 123.48C219.14 122.9 222.15 120.59 226.28 115.84C228.22 113.62 230.42 110.63 233 107.12ZM134 56.1201C128.9 52.2701 115.93 61.2801 115.86 70.4801C115.78 79.9301 127.53 82.8201 129.05 82.8901C129.497 82.9272 129.945 82.8334 130.34 82.6201C130.611 82.4619 130.827 82.2246 130.96 81.9401C132.341 79.2253 133.583 76.4417 134.68 73.6001C136.47 68.9201 138.74 59.7301 134 56.1201ZM126.31 88.6501C122.793 87.5515 119.432 86.0055 116.31 84.0501C113.284 82.0774 110.823 79.3514 109.17 76.1401C108.99 75.8401 108.79 76.07 108.61 76.34C108.43 76.61 107.39 77.91 100.45 88.09C93.5097 98.2701 83.2297 119.09 92.8597 122.67C98.9997 125 109.37 114.12 115 107C119.213 101.405 123.106 95.5755 126.66 89.5401C126.89 88.9301 126.66 88.7901 126.32 88.6801M277 94.9201H283.76C283.76 94.9201 249.89 143.92 230.76 141.64C220.08 140.39 223.25 127.21 223.25 127.21C223.25 127.21 208.25 144.77 194.47 141.21C181.97 138 190.04 117.21 190.04 117.21C188.62 117.78 161.57 148.27 142.56 140.96C122.67 133.28 133 107.75 136.78 100.07C139.99 93.6001 143.54 87.3001 143.54 87.3001C143.54 87.3001 140.49 88.1601 138.54 88.6001C136.59 89.0401 133.77 89.6001 133.77 89.6001C133.77 89.6001 124.36 104.89 118.61 112.52C112.86 120.15 88.4197 146.37 74.0197 141.15C59.6197 135.93 63.1897 115.78 71.2797 99.7801C84.3997 73.8301 115.53 41.9401 134.28 46.7801C153.22 51.6101 137.54 82.3301 137.54 82.3301C137.54 82.3301 141.31 82.8201 150.34 76.6601C163.34 67.7901 180.5 43.9301 199.08 46.7301C207.84 48.0501 216 57.0001 204.84 74.0001C201.28 79.4601 195.31 84.3401 190.74 79.5101C187.89 76.5101 190.38 71.0401 193.37 67.3001C194.533 65.7755 196.054 64.5604 197.798 63.7617C199.542 62.963 201.455 62.6053 203.37 62.7201C203.37 62.7201 206.44 55.7201 198.63 55.8201C192.31 55.9401 176.31 70.6701 167.28 85.5501C159 99.2101 146.45 122.48 159.05 127.55C170.6 132.21 192.58 106.12 202.76 92.4501C212.94 78.7801 236.14 47.8001 255.6 46.5601C262.3 46.1201 266.29 52.2301 266.29 52.2301L268.54 48.6701H288C288 48.6701 251.35 109.83 248.49 114.46C246.24 118.08 243.25 126.22 251.49 121.66C259.73 117.1 277 94.9201 277 94.9201ZM266.41 192.92C252.081 183.002 234.924 177.995 217.51 178.65C212.796 178.779 208.18 180.016 204.034 182.263C199.888 184.509 196.331 187.701 193.65 191.58C186.23 178.63 171.56 170.68 148.88 170.86C112.23 171.28 75.8797 188.18 47.0797 188.16C19.4797 188.16 -0.650325 170.81 -0.000324658 140C1.20968 85.9301 46.8997 37.2401 80.9997 15.3301C100.66 2.74006 117.1 -0.999945 127.85 0.210056C135.69 1.08006 145.12 10.1401 139.17 23.4901C130.43 43.0001 118.36 41.4001 118.81 32.0701C119.06 26.0001 123.1 22.1801 126.14 20.0701C128.07 18.7401 131.48 18.3601 133.26 18.3201C134.99 16.8601 136.26 6.18005 122.26 9.69005C108.26 13.2001 91.2597 27.0001 75.1197 44.8301C58.9797 62.6601 33.8497 96.3601 27.6397 131.75C24.7397 148.16 26.6397 178.09 65.5497 177.75C98.5497 177.48 147.19 155.75 191.89 156.2C209.24 156.37 224.34 161.05 236.11 168.31C247.67 175.43 261.53 185.83 266.45 192.93" fill="black"/>
</g>
<defs>
<clipPath id="clip0_159_4937">
<rect width="615.08" height="192.94" fill="white"/>
</clipPath>
</defs>
</svg>
