<svg width="800" height="800" viewBox="0 0 800 800" fill="none" xmlns="http://www.w3.org/2000/svg">
<g clip-path="url(#clip0_159_4959)">
<path d="M799.506 330.436C788.628 267.975 600.953 248.483 380.306 286.897C287.642 303.039 203.972 326.846 138.813 353.63C148.822 353.849 156.245 356.144 160.755 360.643C164.282 364.173 166.063 369.018 166.063 375.055V381.251H144.427V375.78C144.427 371.222 141.693 368.397 136.852 368.397C132.784 368.397 130.278 370.234 129.469 373.852C129.198 375.282 129.228 376.753 129.557 378.171C131.872 387.634 163.999 393.511 167.493 410.975C167.951 413.223 168.573 418.032 167.593 424.913C165.589 438.999 153.213 444.433 137.458 444.433C115.467 444.433 106.534 434.018 106.534 419.658L106.55 412.864H129.744L129.756 421.327C129.756 426.085 133.214 428.711 137.924 428.711C142.387 428.711 144.993 426.914 145.893 423.24C146.312 421.55 146.495 419.06 145.734 417.155C141.442 406.389 111.443 401.361 107.749 383.952C106.925 380.04 106.857 376.709 107.542 372.497C107.894 370.409 108.54 368.382 109.463 366.476C37.1875 400.277 -5.09225 437.469 0.494045 469.58C11.3837 532.049 199.055 551.521 419.697 513.107C516.689 496.224 603.886 470.95 670.248 442.628C669.288 442.676 668.355 442.78 667.359 442.78C652.258 442.78 638.774 437.122 637.376 421.686C637.129 418.877 637.085 417.701 637.077 416.1L637.085 380.613C637.085 379.083 637.264 376.398 637.436 375.011C639.225 360.093 651.019 353.941 667.367 353.941C680.018 353.941 695.53 357.571 697.235 375.023C697.462 377.215 697.438 379.554 697.434 380.323V383.674H675.583V378.673C675.583 378.565 675.551 376.697 675.312 375.529C674.954 373.748 673.436 369.62 667.212 369.62C661.064 369.62 659.47 373.756 659.071 375.533C658.844 376.509 658.737 377.912 658.737 379.466V418.032C658.717 419.371 658.785 420.419 658.92 421.188C659.028 421.793 660.131 427.109 667.288 427.109C674.392 427.109 675.492 421.793 675.591 421.188C675.779 420.144 675.802 418.901 675.794 418.032V406.082H667.196V393.212H697.602V416.108C697.594 417.665 697.57 418.817 697.307 421.686C696.94 425.734 695.665 429.161 693.665 432.089C764.044 398.671 805.02 362.081 799.506 330.436ZM227.377 441.138L216.308 365.926H215.909L204.557 441.138H181.228L196.919 356.2H234.983L250.578 441.138H227.377ZM339.589 441.138L339.075 367.381H338.7L324.973 441.138H303.079L289.42 367.381H289.029L288.531 441.138H266.835L268.716 356.2H303.612L313.773 419.295H314.271L324.459 356.2H359.34L361.213 441.138H339.589ZM441.756 424.678C439.421 441.13 423.303 444.007 411.912 444.007C392.997 444.007 381.299 435.923 381.299 419.47L381.311 412.761H404.226L404.242 421.12C404.242 425.658 407.441 428.436 412.382 428.436C416.789 428.436 419.371 426.667 420.267 423.033C420.682 421.339 420.853 418.869 420.12 417.004C415.896 406.441 386.132 401.265 382.514 384.128C381.685 380.243 381.625 376.944 382.307 372.776C384.825 357.24 399.735 354.013 411.736 354.013C422.471 354.013 430.284 356.356 434.97 361.041C438.465 364.54 440.234 369.341 440.234 375.314V381.442H418.805V376.035C418.805 371.405 415.932 368.728 411.314 368.728C407.218 368.728 404.74 370.549 403.927 374.131C403.663 375.546 403.698 377.001 404.03 378.402C406.325 387.821 438.17 393.579 441.656 410.88C442.106 413.087 442.724 417.825 441.756 424.678ZM521.119 416.96C521.151 418.554 520.996 421.738 520.908 422.554C519.601 436.548 509.592 443.66 491.236 443.66C472.807 443.66 462.79 436.548 461.491 422.554C461.344 420.699 461.273 418.838 461.28 416.976V356.18H483.203V418.893C483.179 420.295 483.251 421.331 483.39 422.052C483.661 423.447 485.048 427.973 491.236 427.973C497.404 427.973 498.79 423.443 499.081 422.068C499.205 421.327 499.28 420.239 499.28 418.889V356.18H521.119V416.96ZM615.572 440.274H585.067L564.591 372.995H564.248L565.383 440.274H544.122V356.2H575.907L594.833 420.829H595.275L594.156 356.2H615.572V440.274Z" fill="black"/>
</g>
<defs>
<clipPath id="clip0_159_4959">
<rect width="800" height="800" fill="white"/>
</clipPath>
</defs>
</svg>
