<svg width="1000" height="371" viewBox="0 0 1000 371" fill="none" xmlns="http://www.w3.org/2000/svg">
<g clip-path="url(#clip0_159_4877)">
<path fill-rule="evenodd" clip-rule="evenodd" d="M630.688 175.361C613.335 228.599 564.578 270.021 502.77 270.021C437.232 270.021 393.167 229.157 375.478 176.517C393.882 225.556 443.966 260.716 502.868 260.716C562.222 260.716 612.632 225.001 630.688 175.361ZM375.183 94.12C392.613 41.018 433.852 0 502.77 0C566.829 0 613.903 41.579 630.971 95.282C613.163 45.233 562.526 9.119 502.867 9.119C443.655 9.119 393.352 44.672 375.183 94.12Z" fill="black"/>
<path fill-rule="evenodd" clip-rule="evenodd" d="M505.482 81.005C506.31 79.794 508.791 80.601 510.551 80.643C512.933 80.69 512.365 84.141 515.629 83.453C518.891 82.771 518.935 86.513 523.591 86.381C528.275 86.236 522.661 87.988 522.661 87.988C522.661 87.988 519.772 86.614 517.893 87.53C516.913 88.013 518.264 87.258 516.619 85.918C514.051 83.852 514.39 86.31 510.081 82.701C507.054 80.16 504.138 83.004 505.482 81.005ZM528.91 175.245C530.768 175.985 533.08 177.815 534.151 180.596C536.675 187.191 532.924 181.845 532.924 191.789C532.924 200.945 530.302 199.46 530.302 199.46C530.302 199.46 529.734 210.28 524.071 216.925C520.456 220.502 523.263 223.464 523.263 223.464C523.263 223.464 522.036 224.131 520.266 231.98C519.699 234.524 522.993 238.441 525.865 237.464C528.001 236.734 520.644 236.034 528.62 232.712C531.698 231.429 529.181 229.019 529.181 229.019C529.181 229.019 534.348 228.637 537.264 220.94C542.401 221.676 540.491 218.575 551.077 216.326C553.876 215.728 554.467 214.901 554.122 212.302C553.77 209.715 557.572 212.682 568.058 202.146C576.327 193.827 573.347 191.955 579.057 188.932C585.096 185.764 585.65 189.215 587.671 186.62C592.3 180.717 590.661 181.081 592.584 177.322L593.949 175.234L528.91 175.245ZM470.761 87.743C469.044 83.565 469.159 76.796 472.83 70.536C475.142 66.626 481.271 64.894 486.623 66.953C492.631 62.285 494.061 67.307 499.379 65.037C506.363 62.052 502.45 72.942 509.219 75.7C512.014 68.356 502.843 62.841 508.594 59.374C512.699 56.911 515.792 55.381 517.471 52.07C519.87 47.363 520.81 43.924 522.648 43.299C526.913 41.871 525.994 37.879 525.994 37.879C525.994 37.879 530.522 39.192 534.054 35.929C531.361 34.503 527.431 33.266 528.464 30.421C529.674 27.059 538.808 33.893 541.501 28.379C536.081 26.044 530.536 20.982 527.221 19.816C524.94 22.256 523.525 21.274 520.591 18.982C515.63 15.116 515.211 18.801 512.11 16.131C509.63 21.039 513.357 20.649 514.512 21.878C517.699 25.316 511.282 18.788 511.9 27.562C512.062 29.843 508.649 30.258 506.108 25.316C504.784 22.745 494.241 23.292 492.649 20.83C494.102 17.968 506.51 7.77102 525.569 10.216C497.887 -0.495982 460.484 11.215 460.111 15.285C456.384 17.59 457.666 20.215 455.808 20.83C452.591 21.891 449.07 31.595 449.07 31.595C449.07 31.595 451.076 32.914 444.819 39.818C439.664 45.502 438.135 54.121 438.135 54.121C438.135 54.121 441.544 60.261 440.899 67.34C440.412 72.735 440.182 68.736 442.566 72.649C443.951 74.938 445.467 82.932 446.389 79.815C448.153 73.859 443.182 68.358 444.003 62.439C444.186 63.176 445.914 60.097 445.847 62.885C445.656 70.193 454.981 84.275 454.981 84.275C454.981 84.275 451.501 87.75 455.131 87.75L470.761 87.743Z" fill="black"/>
<path d="M272.396 107.324H251.374L254.511 111.009V138.204C254.511 144.326 250.404 146.904 244.27 146.904C238.139 146.904 234.023 144.326 234.023 138.204V111.009L237.166 107.324H216.148L219.285 111.009V138.647C219.285 152.219 226.996 157.45 244.27 157.45C261.547 157.45 269.256 152.219 269.256 138.647V111.009L272.396 107.324Z" fill="black"/>
<path d="M345.352 107.324H327.615L330.771 111.009V135.776L305.338 107.324H289.396L292.546 111.009V152.804L289.396 156.489H307.12L303.984 152.804V127.605L330.992 156.489H342.209V111.009L345.352 107.324Z" fill="black"/>
<path d="M386.198 156.489L383.055 152.804V111.009L386.198 107.324H365.029L368.171 111.009V152.804L365.029 156.489H386.198Z" fill="black"/>
<path d="M456.002 107.324H438.196L441.339 111.009L428.778 138.065L416.656 111.009L419.803 107.324H398.851L422.115 156.489H432.512L456.002 107.324Z" fill="black"/>
<path d="M515.441 156.489V143.151L511.7 146.248H486.194V136.802H502.347L506.02 139.907V123.905L502.347 127.006H486.194V117.566H511.7L515.441 120.665V107.324H468.472L471.614 111.009V152.804L468.472 156.489H515.441Z" fill="black"/>
<path fill-rule="evenodd" clip-rule="evenodd" d="M586.944 156.489L573.421 137.101C580.067 134.442 584.697 129.36 584.697 122.214C584.697 114.025 579.618 107.324 565.402 107.324H534.293L537.442 111.009V152.804L534.293 156.489H555.163L552.027 152.804V138.872H558.298L567.861 152.804L564.731 156.489H586.944ZM569.754 123.243C569.754 126.783 566.308 129.66 561.516 129.66H552.028V117.566H563.314C566.598 117.566 569.754 119.198 569.754 123.243Z" fill="black"/>
<path d="M650.138 142.119C650.138 134.303 643.775 129.955 634.574 127.006C628.593 125.169 620.145 123.844 620.145 119.931C620.145 118.012 622.456 116.681 626.498 116.681C631.894 116.681 640.707 118.896 647.584 122.138V105.71L643.627 109.463C639.437 107.765 632.179 105.999 627.174 105.999C610.207 105.999 604.733 113.369 604.733 120.082C604.733 129.218 610.867 133.202 620.521 136.519C627.688 138.947 634.348 139.17 634.348 143.215C634.348 146.691 630.243 147.133 628.148 147.133C622.838 147.133 613.411 145.284 605.031 139.908V158.11L608.998 153.834C612.894 155.315 621.643 157.814 628.82 157.814C643.545 157.813 650.138 151.401 650.138 142.119Z" fill="black"/>
<path fill-rule="evenodd" clip-rule="evenodd" d="M724.744 156.489L700.212 107.324H683.382L685.169 111.009L662.955 156.489H681.286L678.143 152.804L680.607 147.648H704.391L706.78 152.804L703.637 156.489H724.744ZM700.732 138.802H684.192L692.429 121.185L700.732 138.802Z" fill="black"/>
<path d="M783.853 156.489V143.151L780.104 146.248H756.1V111.009L759.235 107.324H738.365L741.508 111.009V152.804L738.365 156.489H783.853Z" fill="black"/>
<path d="M770.531 114.14C770.531 117.583 773.353 120.357 776.827 120.357C780.328 120.357 783.149 117.583 783.149 114.14C783.149 110.702 780.328 107.919 776.827 107.919C773.354 107.918 770.531 110.701 770.531 114.14ZM769.869 114.14C769.869 110.35 772.988 107.275 776.827 107.275C780.686 107.275 783.802 110.35 783.802 114.14C783.802 117.933 780.687 121.013 776.827 121.013C772.988 121.013 769.869 117.933 769.869 114.14Z" fill="black"/>
<path fill-rule="evenodd" clip-rule="evenodd" d="M779.459 111.457C778.764 110.882 777.949 110.619 777.05 110.619C775.002 110.619 773.475 112.184 773.475 114.159C773.475 116.153 774.972 117.741 777.024 117.741C777.963 117.741 778.855 117.406 779.551 116.796V115.887C778.915 116.635 777.987 117.115 776.999 117.115C775.36 117.115 774.154 115.708 774.154 114.158C774.154 112.605 775.374 111.233 777.012 111.233C777.999 111.233 778.8 111.625 779.458 112.339L779.459 111.457Z" fill="black"/>
<path d="M38.827 336.174L36.659 338.657V357.35C36.659 359.671 36.314 361.635 35.625 363.244C34.936 364.848 33.902 366.153 32.525 367.15C31.146 368.15 29.38 368.887 27.23 369.367C25.078 369.844 22.474 370.083 19.414 370.083C16.371 370.083 13.779 369.844 11.635 369.367C9.493 368.888 7.724 368.15 6.328 367.15C4.932 366.153 3.891 364.845 3.202 363.23C2.513 361.615 2.168 359.659 2.168 357.35V338.657L0 336.174H14.522L12.354 338.657V357.06C12.354 359.039 12.979 360.516 14.231 361.49C15.483 362.464 17.211 362.95 19.413 362.95C21.615 362.95 23.347 362.47 24.607 361.504C25.867 360.537 26.498 359.058 26.498 357.061V338.658L24.331 336.175L38.827 336.174Z" fill="#010101"/>
<path d="M94.4981 336.174L92.3291 338.657V369.428H84.5641L65.9311 349.88V366.944L68.1001 369.427H55.8711L58.0401 366.944V338.657L55.8711 336.174H66.8651L84.4131 355.428V338.657L82.2441 336.174H94.4981Z" fill="#010101"/>
<path d="M127.93 369.428H113.332L115.5 366.945V338.658L113.332 336.175H127.93L125.763 338.658V366.945L127.93 369.428Z" fill="#010101"/>
<path d="M181.584 336.174L165.373 369.428H158.187L142.126 336.174H156.599L154.43 338.657L162.802 356.962L171.475 338.657L169.307 336.174H181.584Z" fill="#010101"/>
<path d="M227.951 369.428H195.526L197.695 366.945V338.658L195.526 336.175H227.951V345.207L225.354 343.112H207.755V349.492H218.9L221.446 347.396V358.207L218.9 356.111H207.755V362.491H225.354L227.951 360.396V369.428Z" fill="#010101"/>
<path d="M282.612 369.428H267.282L269.451 366.945L262.845 357.524H258.508V366.945L260.677 369.428H246.28L248.447 366.945V338.658L246.28 336.175H267.761C272.401 336.175 275.778 337.101 277.897 338.949C280.014 340.801 281.073 343.233 281.073 346.251C281.073 348.572 280.375 350.594 278.98 352.314C277.586 354.034 275.685 355.366 273.283 356.308L282.612 369.428ZM270.738 346.933C270.738 346.058 270.532 345.335 270.12 344.767C269.707 344.2 269.165 343.781 268.495 343.513C267.823 343.246 267.091 343.112 266.3 343.112H258.509V351.293H265.065C266.695 351.293 268.048 350.87 269.125 350.025C270.199 349.18 270.738 348.149 270.738 346.933Z" fill="#010101"/>
<path d="M331.525 359.713C331.525 361.321 331.236 362.765 330.655 364.048C330.075 365.329 329.176 366.441 327.959 367.384C326.739 368.323 325.21 369.05 323.37 369.56C321.528 370.074 319.349 370.328 316.826 370.328C315.297 370.328 313.653 370.182 311.897 369.891C310.14 369.597 308.444 369.226 306.805 368.769C305.166 368.317 303.943 367.935 303.136 367.627L300.388 370.523V358.207C303.01 359.862 305.796 361.089 308.746 361.894C311.696 362.698 314.229 363.1 316.348 363.1C317.439 363.1 318.428 362.917 319.309 362.553C320.193 362.188 320.634 361.485 320.634 360.444C320.634 359.617 320.247 358.985 319.473 358.546C318.701 358.109 317.275 357.62 315.2 357.075C313.123 356.531 311.75 356.146 311.077 355.917C307.412 354.687 304.681 353.243 302.883 351.598C301.084 349.95 300.185 347.682 300.185 344.792C300.185 343.153 300.685 341.616 301.685 340.18C302.685 338.744 304.358 337.568 306.703 336.649C309.048 335.734 312.043 335.274 315.691 335.274C316.531 335.274 317.43 335.335 318.389 335.457C319.347 335.578 320.405 335.761 321.565 336.004C322.724 336.247 323.75 336.504 324.64 336.772C325.532 337.043 326.329 337.319 327.036 337.613L329.785 335.083V346.207C328.154 345.46 326.443 344.808 324.654 344.247C322.863 343.685 321.145 343.257 319.497 342.956C317.849 342.655 316.422 342.507 315.21 342.507C313.848 342.507 312.777 342.709 311.997 343.115C311.215 343.52 310.825 344.048 310.825 344.696C310.825 345.314 311.119 345.848 311.707 346.304C312.295 346.757 313.047 347.153 313.964 347.484C314.88 347.818 316.072 348.183 317.544 348.579C319.014 348.977 320.094 349.282 320.783 349.495C324.228 350.579 326.881 351.931 328.738 353.546C330.595 355.161 331.525 357.216 331.525 359.713Z" fill="#010101"/>
<path d="M388.381 369.428H373.808L375.976 366.945L374.337 363.441H357.897L356.208 366.945L358.377 369.428H345.72L361.05 338.657L359.813 336.174H371.438L388.381 369.428ZM371.792 357.449L366.068 345.544L360.396 357.449H371.792Z" fill="#010101"/>
<path d="M434.495 369.428H403.106L405.274 366.945V338.658L403.106 336.175H417.503L415.334 338.658V362.491H431.899L434.496 360.396V369.428H434.495Z" fill="#010101"/>
<path d="M520.826 369.428H506.731L508.899 366.945V350.975L499.772 369.428H494.957L484.645 350.684V366.945L486.813 369.428H474.888L477.056 366.945V338.658L474.888 336.175H487.016L498.209 356.528L508.446 336.175H520.826L518.658 338.658V366.945L520.826 369.428Z" fill="#010101"/>
<path d="M576.696 336.174L574.529 338.657V357.35C574.529 359.671 574.184 361.635 573.495 363.244C572.806 364.848 571.771 366.153 570.394 367.15C569.015 368.15 567.249 368.887 565.099 369.367C562.947 369.844 560.343 370.083 557.283 370.083C554.24 370.083 551.648 369.844 549.505 369.367C547.362 368.888 545.593 368.15 544.197 367.15C542.801 366.153 541.761 364.845 541.072 363.23C540.383 361.615 540.038 359.659 540.038 357.35V338.657L537.87 336.174H552.392L550.224 338.657V357.06C550.224 359.039 550.849 360.516 552.101 361.49C553.353 362.464 555.081 362.95 557.283 362.95C559.485 362.95 561.217 362.47 562.477 361.504C563.737 360.537 564.368 359.058 564.368 357.061V338.658L562.2 336.175L576.696 336.174Z" fill="#010101"/>
<path d="M624.553 359.713C624.553 361.321 624.262 362.765 623.682 364.048C623.103 365.329 622.203 366.441 620.985 367.384C619.766 368.323 618.237 369.05 616.395 369.56C614.555 370.074 612.374 370.328 609.853 370.328C608.323 370.328 606.68 370.182 604.923 369.891C603.167 369.597 601.469 369.226 599.83 368.769C598.191 368.317 596.968 367.935 596.162 367.627L593.413 370.523V358.207C596.035 359.862 598.821 361.089 601.771 361.894C604.721 362.698 607.255 363.1 609.373 363.1C610.466 363.1 611.453 362.917 612.337 362.553C613.219 362.188 613.659 361.485 613.659 360.444C613.659 359.617 613.272 358.985 612.5 358.546C611.727 358.109 610.303 357.62 608.226 357.075C606.152 356.531 604.776 356.146 604.104 355.917C600.441 354.687 597.708 353.243 595.911 351.598C594.112 349.95 593.213 347.682 593.213 344.792C593.213 343.153 593.714 341.616 594.714 340.18C595.714 338.744 597.387 337.568 599.73 336.649C602.076 335.734 605.071 335.274 608.719 335.274C609.56 335.274 610.459 335.335 611.417 335.457C612.375 335.578 613.435 335.761 614.593 336.004C615.754 336.247 616.778 336.504 617.67 336.772C618.561 337.043 619.359 337.319 620.066 337.613L622.814 335.083V346.207C621.183 345.46 619.473 344.808 617.682 344.247C615.893 343.685 614.174 343.257 612.527 342.956C610.881 342.655 609.451 342.507 608.241 342.507C606.88 342.507 605.808 342.709 605.026 343.115C604.245 343.52 603.853 344.048 603.853 344.696C603.853 345.314 604.147 345.848 604.737 346.304C605.325 346.757 606.077 347.153 606.993 347.484C607.908 347.818 609.101 348.183 610.573 348.579C612.045 348.977 613.124 349.282 613.813 349.495C617.258 350.579 619.909 351.931 621.767 353.546C623.623 355.157 624.553 357.216 624.553 359.713Z" fill="#010101"/>
<path d="M657.48 369.428H642.88L645.049 366.945V338.658L642.88 336.175H657.48L655.31 338.658V366.945L657.48 369.428Z" fill="#010101"/>
<path d="M707.981 367.042C707.342 367.397 706.529 367.755 705.537 368.113C704.545 368.467 703.452 368.789 702.26 369.073C701.065 369.356 699.776 369.596 698.389 369.793C697.001 369.985 695.687 370.083 694.444 370.083C691.755 370.083 689.219 369.752 686.842 369.087C684.463 368.421 682.344 367.384 680.488 365.971C678.632 364.559 677.174 362.741 676.114 360.517C675.054 358.294 674.526 355.712 674.526 352.776C674.526 350.343 674.969 348.069 675.862 345.961C676.753 343.852 678.072 342.014 679.821 340.446C681.568 338.881 683.707 337.668 686.236 336.806C688.767 335.948 691.644 335.515 694.872 335.515C696.149 335.515 697.452 335.603 698.779 335.772C700.107 335.941 701.331 336.158 702.449 336.418C703.566 336.678 704.605 336.979 705.563 337.316L707.932 335.127V346.204C706.655 345.44 705.366 344.805 704.063 344.291C702.76 343.781 701.384 343.389 699.94 343.112C698.494 342.835 696.99 342.699 695.427 342.699C692.014 342.699 689.476 343.642 687.812 345.535C686.148 347.424 685.317 349.84 685.317 352.776C685.317 354.773 685.745 356.537 686.602 358.071C687.459 359.605 688.686 360.795 690.283 361.636C691.881 362.481 693.704 362.903 695.755 362.903C697.654 362.903 699.39 362.708 700.961 362.319C702.532 361.93 703.835 361.481 704.869 360.967C705.903 360.456 706.94 359.885 707.982 359.25L707.981 367.042Z" fill="#010101"/>
<path d="M775.226 355.479L773.007 352.921H785.285V366.238C784.561 366.676 783.612 367.127 782.436 367.59C781.258 368.053 779.939 368.475 778.477 368.854C777.014 369.236 775.536 369.537 774.039 369.756C772.544 369.976 771.081 370.083 769.653 370.083C766.039 370.083 762.676 369.476 759.568 368.259C756.458 367.042 753.97 365.133 752.105 362.538C750.238 359.942 749.305 356.688 749.305 352.775C749.305 348.866 750.288 345.611 752.255 343.012C754.222 340.417 756.764 338.518 759.882 337.315C763 336.116 766.256 335.514 769.653 335.514C772.072 335.514 774.073 335.697 775.654 336.062C777.234 336.43 779.014 336.944 780.999 337.609L783.748 335.126V346.544C781.544 345.341 779.352 344.401 777.167 343.72C774.982 343.037 772.646 342.699 770.156 342.699C768.577 342.699 767.164 342.936 765.921 343.416C764.678 343.896 763.623 344.582 762.758 345.474C761.892 346.367 761.233 347.424 760.778 348.651C760.326 349.878 760.097 351.253 760.097 352.777C760.097 355.845 760.993 358.298 762.782 360.14C764.573 361.985 767.032 362.904 770.157 362.904C771.434 362.904 773.124 362.718 775.226 362.343V355.479Z" fill="#010101"/>
<path d="M838.409 369.428H823.079L825.249 366.945L818.643 357.524H814.306V366.945L816.475 369.428H802.079L804.246 366.945V338.658L802.079 336.175H823.56C828.199 336.175 831.577 337.101 833.696 338.949C835.812 340.801 836.872 343.233 836.872 346.251C836.872 348.572 836.175 350.594 834.779 352.314C833.384 354.034 831.484 355.366 829.082 356.308L838.409 369.428ZM826.534 346.933C826.534 346.058 826.328 345.335 825.916 344.767C825.504 344.2 824.962 343.781 824.291 343.513C823.618 343.246 822.887 343.112 822.096 343.112H814.306V351.293H820.862C822.492 351.293 823.845 350.87 824.922 350.025C825.995 349.18 826.534 348.149 826.534 346.933Z" fill="#010101"/>
<path d="M894.256 352.775C894.256 356.769 893.314 360.078 891.432 362.707C889.549 365.336 887.108 367.255 884.107 368.465C881.108 369.675 877.877 370.279 874.415 370.279C870.968 370.279 867.735 369.671 864.72 368.455C861.702 367.234 859.244 365.309 857.345 362.673C855.447 360.034 854.496 356.735 854.496 352.776C854.496 349.742 855.056 347.106 856.172 344.866C857.291 342.625 858.803 340.803 860.711 339.398C862.618 337.996 864.74 336.964 867.077 336.306C869.413 335.65 871.858 335.323 874.415 335.323C877.003 335.323 879.465 335.654 881.802 336.32C884.138 336.985 886.243 338.012 888.117 339.398C889.991 340.787 891.482 342.605 892.593 344.852C893.7 347.099 894.256 349.741 894.256 352.775ZM883.465 352.775C883.465 349.545 882.736 347.027 881.283 345.215C879.829 343.407 877.539 342.502 874.414 342.502C872.346 342.502 870.631 342.921 869.268 343.756C867.909 344.59 866.912 345.777 866.281 347.311C865.651 348.845 865.336 350.666 865.336 352.775C865.336 354.302 865.508 355.705 865.853 356.985C866.198 358.269 866.746 359.364 867.492 360.273C868.241 361.182 869.19 361.878 870.343 362.369C871.493 362.855 872.851 363.098 874.415 363.098C875.994 363.098 877.359 362.855 878.512 362.369C879.662 361.879 880.604 361.182 881.335 360.273C882.066 359.364 882.605 358.29 882.948 357.046C883.292 355.807 883.465 354.384 883.465 352.775Z" fill="#010101"/>
<path d="M948.16 336.174L945.992 338.657V357.35C945.992 359.671 945.648 361.635 944.959 363.244C944.27 364.848 943.235 366.153 941.858 367.15C940.479 368.15 938.713 368.887 936.563 369.367C934.41 369.844 931.805 370.083 928.747 370.083C925.704 370.083 923.112 369.844 920.969 369.367C918.826 368.888 917.057 368.15 915.661 367.15C914.265 366.153 913.223 364.845 912.534 363.23C911.845 361.615 911.502 359.659 911.502 357.35V338.657L909.332 336.174H923.855L921.686 338.657V357.06C921.686 359.039 922.313 360.516 923.565 361.49C924.817 362.464 926.544 362.95 928.747 362.95C930.948 362.95 932.681 362.47 933.941 361.504C935.201 360.537 935.832 359.058 935.832 357.061V338.658L933.664 336.175L948.16 336.174Z" fill="#010101"/>
<path d="M1000 347.2C1000 351.971 998.466 355.259 995.397 357.06C992.331 358.861 988.341 359.763 983.435 359.763H977.433V366.944L979.601 369.427H965.205L967.374 366.944V338.657L965.205 336.174H983.738C986.442 336.174 989.008 336.482 991.426 337.1C993.848 337.715 995.88 338.843 997.528 340.483C999.176 342.121 1000 344.361 1000 347.2ZM989.511 347.784C989.511 346.048 988.969 344.834 987.884 344.145C986.801 343.456 985.241 343.111 983.207 343.111H977.434V353.164H982.3C984.771 353.164 986.59 352.775 987.759 351.998C988.927 351.218 989.511 349.815 989.511 347.784Z" fill="#010101"/>
</g>
<defs>
<clipPath id="clip0_159_4877">
<rect width="1000" height="370.522" fill="white"/>
</clipPath>
</defs>
</svg>
