<svg width="1200" height="800" viewBox="0 0 1200 800" fill="none" xmlns="http://www.w3.org/2000/svg">
<path fill-rule="evenodd" clip-rule="evenodd" d="M319.541 439.892C312.711 448.43 302.465 456.968 288.377 466.36C242.697 497.101 183.782 497.101 159.446 466.36C149.626 453.551 146.21 438.181 148.775 421.957C153.04 395.491 173.535 369.02 206.406 347.247C216.652 340.417 224.763 340.417 229.459 341.699C235.436 343.404 238.853 347.247 240.134 349.813C242.269 354.077 247.817 364.75 226.897 381.401C184.635 413.848 170.116 443.308 185.487 464.221C201.284 485.572 252.941 484.714 287.521 462.087C298.194 454.832 307.587 448.857 316.553 438.18C317.404 436.904 318.687 436.904 319.113 437.328C319.968 438.181 320.395 439.462 319.54 439.894L319.541 439.892Z" fill="black"/>
<path fill-rule="evenodd" clip-rule="evenodd" d="M138.955 360.057C145.783 351.518 156.029 342.978 169.692 333.586C215.8 302.847 274.716 302.847 299.048 334.013C308.868 346.396 312.285 361.764 309.724 378.415C305.455 404.454 284.963 430.927 252.09 452.698C241.844 459.527 233.733 459.527 229.036 458.249C223.061 456.969 219.644 452.698 218.364 450.567C215.803 445.868 210.679 435.195 231.601 418.971C273.864 386.097 288.378 356.643 273.01 336.151C257.213 314.376 205.556 315.657 170.976 338.284C160.3 345.114 150.909 351.523 141.943 361.763C140.662 363.046 139.809 363.046 138.955 362.62C138.528 361.763 138.1 360.91 138.955 360.057Z" fill="black"/>
<path fill-rule="evenodd" clip-rule="evenodd" d="M416.027 348.103L424.565 371.582L442.068 348.103H474.944L437.802 389.94L459.146 437.329H428.408L418.588 412.139L398.097 437.331H364.371L406.634 389.94L386.142 348.103H416.027Z" fill="black"/>
<path fill-rule="evenodd" clip-rule="evenodd" d="M505.682 397.197C506.108 393.785 505.255 392.075 503.974 390.798C502.692 389.517 500.558 388.658 497.996 388.658C486.898 388.658 484.336 402.747 484.336 409.155C484.336 415.129 485.616 421.105 492.874 421.105C499.279 421.105 502.266 415.131 503.548 411.285H527.456C523.185 430.071 511.231 439.039 492.446 439.039C465.127 439.039 459.574 421.534 459.574 409.157C459.574 387.378 473.662 370.731 498.425 370.731C516.356 370.731 530.018 378.84 529.588 397.198H505.682V397.197ZM558.622 397.627C560.756 390.798 565.025 386.955 571.428 386.955C577.832 386.955 580.819 390.799 580.819 395.492V397.628L558.622 397.627ZM576.553 418.542C575.27 420.682 571.853 423.241 566.732 423.241C559.046 423.241 556.486 417.267 556.486 410.432H602.592C603.875 406.592 603.875 402.749 603.875 399.338C603.875 378.841 586.798 370.731 572.28 370.731C556.059 370.731 533.429 380.551 533.429 410.434C533.429 426.234 542.823 439.041 565.876 439.041C593.628 439.041 598.323 422.818 600.03 418.544L576.553 418.542ZM630.343 437.331H605.582L623.94 348.103H648.702L630.343 437.331ZM739.208 358.351H689.686L683.711 386.525H729.817L727.683 396.342H681.571L675.169 427.084H725.12L722.986 437.329H661.08L679.866 348.103H741.343L739.208 358.351ZM746.893 372.865H757.143L755.005 382.684H755.43C760.554 375.428 769.518 371.158 778.057 371.158C790.435 371.158 796.415 376.71 796.415 387.807C796.415 390.798 795.562 395.491 794.281 400.618L786.594 437.329H775.923L784.037 399.761C784.461 397.198 785.744 391.647 785.744 389.517C785.744 383.537 780.62 380.551 774.218 380.551C768.667 380.551 762.264 383.965 758.417 388.235C754.578 391.224 752.866 396.344 751.163 401.467L743.905 437.329H733.234L746.893 372.865ZM813.068 398.907C816.485 388.658 822.887 380.55 835.695 380.55C847.221 380.55 851.488 389.941 850.638 398.907H813.068ZM860.026 408.298C860.456 406.592 861.309 403.177 861.309 399.759C861.309 381.825 852.771 371.158 833.985 371.158C816.055 371.158 800.684 388.234 800.684 412.995C800.684 424.092 806.664 438.609 828.011 438.609C842.099 438.609 853.625 431.355 857.039 417.267H846.796C843.804 424.949 837.399 429.218 828.011 429.218C819.472 429.218 811.358 423.667 811.358 413.848C811.358 412.138 811.358 410.002 811.785 408.297L860.026 408.298ZM876.678 372.865H886.923L883.506 386.525H883.936C889.058 377.557 896.318 371.16 907.416 371.16H911.261L908.698 382.684H905.281C902.723 382.684 901.442 382.684 899.306 383.108C893.329 384.818 888.635 388.66 885.218 393.785C882.655 397.627 880.951 404.029 880.096 408.722L874.116 437.329H863.445L876.678 372.865ZM977.006 372.865H988.532L995.787 424.094H996.216L1023.11 372.865H1035.07L983.835 463.372H973.59L988.533 437.329L977.006 372.865ZM915.955 410.861C915.955 399.335 924.069 380.55 939.009 380.55C950.11 380.55 955.662 387.377 955.662 397.627C955.662 410.432 947.979 428.362 932.179 428.362C921.505 428.362 915.955 420.252 915.955 410.861ZM960.355 427.938L971.886 372.865H961.637L959.932 384.82H959.502V384.391C957.797 376.277 948.4 371.16 939.009 371.16C918.095 371.16 905.712 392.077 905.712 410.862C905.712 426.232 913.819 437.759 929.62 437.759C937.729 437.759 945.413 434.771 949.683 427.938H950.11C944.133 451.418 927.056 456.968 909.128 456.968C908.275 459.525 906.14 462.942 904.858 466.359C926.202 466.359 952.246 461.665 960.355 427.938ZM1039.77 380.55C1039.34 381.827 1040.19 382.684 1041.47 382.684C1042.75 382.684 1044.46 382.255 1044.46 380.55C1044.89 379.697 1044.03 379.268 1043.18 378.84C1041.47 378.84 1038.48 378.417 1039.34 375.852C1039.77 373.29 1041.9 372.437 1044.03 372.437C1045.74 372.437 1047.45 373.29 1047.02 375.43H1045.31C1045.74 374.148 1044.89 373.72 1043.6 373.72C1042.75 373.72 1041.05 374.148 1041.05 375.43C1040.62 376.712 1041.47 376.712 1042.32 377.135C1044.03 377.988 1047.02 377.988 1046.17 380.551C1045.74 383.11 1043.18 383.967 1041.05 383.967C1038.91 383.967 1037.63 382.685 1038.05 380.551L1039.77 380.55ZM1054.28 383.537H1053L1051.29 373.717L1049.59 383.537H1047.87L1050.01 372.865H1053L1054.28 381.827L1058.98 372.864H1061.54L1059.41 383.537H1057.69L1059.83 373.717L1054.28 383.537Z" fill="black"/>
</svg>
