<svg width="711" height="982" viewBox="0 0 711 982" fill="none" xmlns="http://www.w3.org/2000/svg">
<g clip-path="url(#clip0_199_2330)">
<path d="M319.128 0.204596C323.496 -0.460574 327.576 2.5411 328.241 6.90902L377.17 328.205C377.814 332.436 375.017 336.397 370.871 337.245L370.465 337.318L129.246 374.052L128.837 374.104C124.626 374.528 120.777 371.579 120.133 367.348L70 38.1431L319.128 0.204596ZM124.087 366.745C124.42 368.929 126.46 370.43 128.644 370.098L369.863 333.364C372.047 333.031 373.548 330.991 373.215 328.807L324.287 7.51122C323.954 5.32726 321.914 3.82642 319.73 4.15901L74.5566 41.4953L124.087 366.745ZM342.302 258.661C346.67 257.996 350.751 260.998 351.416 265.366L354.126 283.161C354.77 287.392 351.973 291.353 347.827 292.201L347.421 292.274L137.837 324.19L137.428 324.242C133.354 324.652 129.618 321.904 128.797 317.892L128.724 317.486L124.81 291.782L342.302 258.661ZM132.679 316.884C133.011 319.068 135.051 320.569 137.235 320.236L346.819 288.319C349.003 287.987 350.504 285.947 350.171 283.763L347.461 265.968C347.129 263.784 345.089 262.283 342.905 262.616L129.367 295.135L132.679 316.884ZM334.926 210.22C339.293 209.555 343.374 212.556 344.039 216.924L346.749 234.719C347.393 238.95 344.596 242.911 340.45 243.76L340.044 243.832L130.461 275.749L130.052 275.8C125.977 276.211 122.241 273.463 121.42 269.45L121.347 269.044L117.433 243.341L334.926 210.22ZM125.302 268.442C125.634 270.626 127.674 272.127 129.858 271.794L339.442 239.878C341.626 239.545 343.127 237.505 342.794 235.321L340.084 217.527C339.752 215.343 337.712 213.842 335.528 214.174L121.99 246.693L125.302 268.442ZM327.549 161.778C331.917 161.113 335.997 164.115 336.662 168.483L339.372 186.278C340.016 190.509 337.219 194.47 333.073 195.318L332.667 195.391L123.084 227.307L122.675 227.359C118.6 227.769 114.864 225.021 114.043 221.009L113.97 220.603L110.056 194.899L327.549 161.778ZM117.925 220.001C118.257 222.185 120.297 223.686 122.481 223.353L332.065 191.436C334.249 191.104 335.75 189.064 335.417 186.88L332.707 169.085C332.375 166.901 330.335 165.4 328.151 165.733L114.613 198.251L117.925 220.001ZM154.125 90.8978C157.499 90.384 160.828 92.0675 162.414 95.0902L187.029 142.022L196.588 89.8831C197.203 86.527 199.879 83.9303 203.252 83.4165L213.286 81.8883C216.661 81.3745 219.99 83.0581 221.575 86.0808L246.191 133.012L255.749 80.8736C256.365 77.5176 259.04 74.9208 262.413 74.407L272.448 72.8789C275.822 72.3651 279.152 74.0486 280.737 77.0713L305.394 124.077C307.946 128.943 304.945 134.875 299.513 135.702L294.901 136.404C291.475 136.926 288.102 135.181 286.547 132.083L285.505 130.009C283.951 126.911 280.578 125.166 277.151 125.688L273.62 126.226C270.194 126.747 267.494 129.415 266.931 132.833L266.551 135.132C265.987 138.551 263.287 141.219 259.862 141.74L235.74 145.414C232.313 145.935 228.94 144.191 227.386 141.093L226.344 139.018C224.789 135.92 221.416 134.175 217.989 134.697L214.458 135.235C211.033 135.757 208.333 138.424 207.769 141.843L207.389 144.142C206.826 147.561 204.126 150.228 200.7 150.75L176.578 154.423C173.151 154.945 169.779 153.2 168.224 150.102L167.182 148.027C165.627 144.929 162.255 143.185 158.828 143.707L155.296 144.244C151.871 144.766 149.171 147.433 148.607 150.852L148.228 153.151C147.664 156.57 144.964 159.237 141.539 159.759L136.928 160.461C131.494 161.288 126.864 156.516 127.855 151.11L137.426 98.8925C138.041 95.5365 140.717 92.9397 144.09 92.4259L154.125 90.8978ZM147.51 95.9512C144.137 96.465 141.461 99.0617 140.846 102.418L132.343 148.809C131.576 152.992 135.159 156.684 139.364 156.044C142.014 155.641 144.104 153.577 144.54 150.931L145.133 147.335C145.697 143.916 148.397 141.249 151.822 140.727L161.099 139.315C164.526 138.793 167.898 140.537 169.453 143.636L171.084 146.885C172.287 149.283 174.898 150.633 177.55 150.229C181.753 149.589 184.075 144.998 182.099 141.233L160.196 99.4741C158.61 96.4514 155.281 94.7678 151.907 95.2816L147.51 95.9512ZM206.672 86.9417C203.299 87.4556 200.623 90.0523 200.008 93.4083L191.505 139.799C190.738 143.982 194.321 147.675 198.525 147.035C201.176 146.631 203.265 144.567 203.701 141.922L204.295 138.326C204.858 134.907 207.558 132.24 210.984 131.718L220.26 130.305C223.687 129.783 227.06 131.528 228.615 134.626L230.245 137.876C231.448 140.273 234.059 141.623 236.711 141.22C240.915 140.579 243.236 135.989 241.261 132.223L219.358 90.4646C217.772 87.4419 214.443 85.7584 211.068 86.2722L206.672 86.9417ZM265.834 77.9323C262.461 78.4461 259.785 81.0428 259.17 84.3989L250.666 130.79C249.9 134.973 253.483 138.665 257.687 138.025C260.338 137.622 262.427 135.558 262.863 132.912L263.456 129.316C264.02 125.898 266.72 123.23 270.145 122.709L279.422 121.296C282.849 120.774 286.222 122.519 287.776 125.617L289.407 128.866C290.61 131.264 293.221 132.614 295.873 132.21C300.077 131.57 302.398 126.979 300.423 123.214L278.519 81.4552C276.934 78.4325 273.605 76.7489 270.23 77.2627L265.834 77.9323ZM151.711 108.76C151.845 108.739 151.977 108.807 152.038 108.928L159.008 122.819C160.641 126.076 158.623 129.979 155.021 130.527C151.418 131.075 148.329 127.948 148.922 124.352L151.45 109.018C151.472 108.884 151.577 108.78 151.711 108.76ZM210.873 99.7502C211.007 99.7298 211.139 99.7978 211.2 99.9187L218.169 113.81C219.803 117.066 217.784 120.969 214.183 121.518C210.58 122.066 207.491 118.939 208.084 115.343L210.612 100.008C210.634 99.8748 210.739 99.7707 210.873 99.7502ZM270.034 90.7408C270.168 90.7204 270.301 90.7883 270.361 90.9093L277.331 104.801C278.965 108.057 276.946 111.96 273.344 112.508C269.741 113.057 266.653 109.929 267.246 106.333L269.773 90.9988C269.795 90.8654 269.901 90.7613 270.034 90.7408ZM155.433 124.612C154.841 123.432 153.084 123.7 152.869 125.003C152.718 125.917 153.504 126.712 154.42 126.572C155.335 126.433 155.848 125.44 155.433 124.612ZM214.595 115.603C214.002 114.423 212.245 114.69 212.031 115.993C211.88 116.908 212.665 117.703 213.581 117.563C214.497 117.423 215.01 116.431 214.595 115.603ZM273.756 106.594C273.164 105.413 271.407 105.681 271.192 106.984C271.042 107.898 271.827 108.693 272.743 108.554C273.659 108.414 274.172 107.421 273.756 106.594Z" fill="white"/>
<path d="M649.485 751.718C653.896 751.976 657.263 755.76 657.005 760.171L638.024 1084.62C637.774 1088.89 634.214 1092.18 629.982 1092.15L629.57 1092.14L385.986 1077.89L385.576 1077.85C381.369 1077.39 378.217 1073.7 378.467 1069.43L397.916 737L649.485 751.718ZM382.461 1069.67C382.331 1071.87 384.015 1073.76 386.22 1073.89L629.804 1088.14C632.009 1088.27 633.901 1086.59 634.03 1084.38L653.011 759.938C653.14 757.732 651.457 755.84 649.252 755.711L401.675 741.227L382.461 1069.67ZM618.386 1009.34C622.797 1009.6 626.163 1013.38 625.905 1017.79L624.854 1035.76C624.604 1040.04 621.045 1043.33 616.813 1043.3L616.401 1043.28L404.762 1030.9L404.352 1030.87C400.281 1030.42 397.198 1026.96 397.23 1022.86L397.243 1022.45L398.762 996.492L618.386 1009.34ZM401.237 1022.68C401.108 1024.89 402.791 1026.78 404.996 1026.91L616.634 1039.29C618.84 1039.42 620.732 1037.74 620.861 1035.53L621.912 1017.56C622.041 1015.36 620.358 1013.46 618.153 1013.33L402.521 1000.72L401.237 1022.68ZM621.248 960.425C625.659 960.683 629.025 964.467 628.767 968.878L627.716 986.848C627.466 991.12 623.906 994.413 619.674 994.38L619.262 994.367L407.624 981.985L407.213 981.95C403.142 981.504 400.06 978.039 400.092 973.944L400.105 973.532L401.624 947.576L621.248 960.425ZM404.098 973.765C403.969 975.971 405.652 977.863 407.858 977.992L619.496 990.373C621.701 990.502 623.594 988.819 623.723 986.614L624.774 968.645C624.903 966.439 623.22 964.547 621.014 964.418L405.383 951.803L404.098 973.765ZM624.11 911.508C628.521 911.766 631.887 915.551 631.629 919.962L630.578 937.931C630.327 942.204 626.768 945.496 622.536 945.464L622.124 945.45L410.486 933.069L410.075 933.034C406.004 932.588 402.922 929.122 402.954 925.027L402.967 924.615L404.485 898.66L624.11 911.508ZM406.96 924.849C406.831 927.054 408.514 928.947 410.72 929.076L622.358 941.457C624.563 941.586 626.455 939.903 626.585 937.698L627.636 919.728C627.765 917.523 626.082 915.63 623.876 915.501L408.245 902.886L406.96 924.849ZM567.053 815.779C570.738 815.995 574.112 816.825 577.065 818.395L577.064 818.395C579.806 819.846 582.058 821.807 583.687 824.306L583.95 824.725C584.425 820.648 588.006 817.603 592.155 817.845L620.339 819.494C624.641 819.746 627.924 823.437 627.672 827.739L627.607 828.861C627.398 832.429 624.426 835.179 620.892 835.151L620.205 835.128C616.671 835.101 613.699 837.85 613.49 841.418L612.243 862.732C611.985 867.143 608.2 870.509 603.789 870.251L602.672 870.186C598.262 869.928 594.895 866.143 595.153 861.732L596.4 840.418C596.609 836.85 593.977 833.773 590.464 833.388L589.779 833.331C588.422 833.182 587.197 832.632 586.217 831.807C586.258 832.33 586.277 832.86 586.272 833.395L586.257 834.013L586.158 836.36C586.118 837.303 585.313 838.03 584.371 837.975L582.144 837.845C580.866 837.77 580.2 839.788 581.124 840.675L581.393 840.94C582.877 842.426 584.012 844.159 584.77 846.113C585.533 848.042 585.84 850.107 585.78 852.244L585.763 852.672L585.76 852.725C585.545 856.087 584.491 859.148 582.48 861.734L582.481 861.736L582.481 861.737C580.496 864.295 577.804 866.097 574.622 867.241L574.612 867.245C571.408 868.387 567.787 868.764 563.861 868.534C559.945 868.305 556.377 867.495 553.259 865.988L553.252 865.985C550.294 864.548 547.872 862.514 546.12 859.862L545.779 859.324L545.763 859.298C545.454 858.781 545.178 858.251 544.932 857.708C544.977 858.128 544.989 858.558 544.964 858.994C544.712 863.295 541.02 866.579 536.718 866.327L515.07 865.061C510.659 864.803 507.293 861.018 507.551 856.607L507.963 849.558C507.386 851.763 506.443 853.812 505.105 855.666L505.104 855.666C503.001 858.597 500.183 860.775 496.772 862.213L496.764 862.216L496.756 862.219C493.312 863.654 489.494 864.184 485.404 863.944C481.302 863.704 477.564 862.733 474.308 860.905L474.294 860.898C471.271 859.184 468.842 856.881 467.111 853.994L466.774 853.409C465.604 851.291 464.901 849.008 464.62 846.601C464.016 848.535 463.171 850.342 462.062 852L462.057 852.008C459.863 855.272 456.932 857.741 453.337 859.368L453.323 859.375C449.735 860.982 445.789 861.605 441.583 861.359C437.187 861.102 433.186 859.951 429.691 857.809L429 857.368L428.988 857.36C425.574 855.077 422.953 852.021 421.133 848.28L420.78 847.523L420.771 847.505C418.944 843.362 418.264 838.685 418.561 833.595C418.79 829.683 419.568 826.087 420.974 822.872L420.978 822.862C422.373 819.695 424.262 816.958 426.677 814.727C429.055 812.531 431.787 810.901 434.844 809.857C437.898 808.814 441.123 808.412 444.477 808.608C447.339 808.776 450.05 809.356 452.578 810.384L452.577 810.384C455.057 811.378 457.284 812.731 459.217 814.458L459.216 814.457C461.162 816.183 462.733 818.208 463.904 820.516C464.645 821.965 465.192 823.484 465.552 825.065L465.937 818.475C466.196 814.064 469.98 810.698 474.391 810.956L475.614 811.027C480.025 811.286 483.391 815.07 483.133 819.481L481.758 842.991L481.746 843.376C481.743 844.241 481.912 844.919 482.182 845.481C482.468 846.051 482.859 846.523 483.408 846.92L483.656 847.087C484.286 847.485 485.138 847.783 486.345 847.854C487.574 847.926 488.446 847.726 489.089 847.414L489.098 847.41L489.107 847.406C489.832 847.058 490.343 846.598 490.728 845.996L490.736 845.982L490.746 845.968C491.136 845.37 491.408 844.605 491.469 843.559L492.844 820.049C493.103 815.639 496.887 812.272 501.298 812.53L502.521 812.602C506.315 812.824 509.334 815.656 509.941 819.25C510.962 815.751 514.292 813.29 518.086 813.512L539.649 814.774C543.951 815.026 547.235 818.718 546.983 823.02C546.731 827.322 543.04 830.605 538.738 830.354L527.581 829.701C526.92 829.662 526.353 830.167 526.314 830.828C526.275 831.489 526.78 832.056 527.441 832.095L537.087 832.659C541.389 832.911 544.673 836.603 544.421 840.906C544.169 845.207 540.478 848.491 536.176 848.239L526.54 847.676C525.874 847.637 525.301 848.146 525.262 848.813C525.223 849.479 525.732 850.051 526.399 850.09L537.63 850.747C540.304 850.904 542.584 852.391 543.866 854.526C543.518 853.009 543.357 851.42 543.369 849.775L543.385 849.078L543.461 846.944C543.499 845.871 544.413 845.04 545.484 845.103L549.128 845.316C550.163 845.376 550.685 843.868 549.926 843.163L549.428 842.682C546.495 839.736 545.286 835.941 545.55 831.744C545.737 828.353 546.842 825.276 548.947 822.684L548.954 822.676L548.959 822.669C551.005 820.174 553.671 818.366 556.81 817.189C559.972 816.004 563.41 815.566 567.053 815.779ZM501.677 816.559C499.133 816.41 496.951 818.352 496.802 820.895L495.462 843.792L495.439 844.101C495.306 845.632 494.859 846.983 494.097 848.152C493.298 849.4 492.21 850.354 490.834 851.013C489.473 851.673 487.898 851.951 486.112 851.847C484.339 851.743 482.808 851.283 481.518 850.468C480.229 849.653 479.253 848.578 478.591 847.245C477.984 845.995 477.703 844.602 477.751 843.066L477.765 842.757L479.105 819.86C479.253 817.317 477.313 815.134 474.77 814.985C472.226 814.836 470.043 816.778 469.895 819.321L468.509 843.006L468.483 843.597C468.4 846.533 468.997 849.16 470.275 851.475C471.639 853.945 473.636 855.927 476.266 857.418C478.733 858.803 481.633 859.632 484.965 859.904L485.637 859.951C489.014 860.149 492.032 859.743 494.692 858.736L495.218 858.527C498.005 857.352 500.219 855.617 501.862 853.323C503.415 851.173 504.322 848.635 504.583 845.709L504.626 845.119L506.012 821.434C506.16 818.891 504.22 816.708 501.677 816.559ZM566.82 819.772C563.643 819.587 560.774 819.974 558.214 820.934C555.654 821.894 553.6 823.318 552.053 825.205C550.519 827.093 549.682 829.357 549.542 831.995L549.517 832.591C549.457 835.538 550.373 837.961 552.263 839.859C554.278 841.883 557.096 843.45 560.716 844.558L565.391 846.027C566.956 846.502 568.271 847.006 569.335 847.538C570.414 848.071 571.218 848.687 571.746 849.387L571.844 849.52C572.317 850.193 572.528 850.988 572.474 851.906L572.459 852.1C572.365 853.068 571.997 853.913 571.354 854.636L571.085 854.915C570.43 855.548 569.583 856.033 568.542 856.371C567.367 856.758 565.999 856.905 564.44 856.814L563.851 856.768C562.694 856.655 561.635 856.412 560.677 856.038L560.206 855.84C558.987 855.271 558.031 854.482 557.335 853.474C556.109 851.633 554.579 849.642 552.37 849.512L552.039 849.493C549.485 849.344 547.202 851.366 547.816 853.851C548.12 855.082 548.58 856.214 549.196 857.245C550.533 859.443 552.467 861.158 554.999 862.387C557.386 863.541 560.2 864.243 563.44 864.496L564.094 864.541C567.639 864.749 570.698 864.393 573.27 863.477C575.857 862.547 577.874 861.149 579.321 859.285C580.782 857.407 581.598 855.135 581.768 852.47C581.854 850.767 581.649 849.229 581.153 847.856L581.051 847.584C580.564 846.323 579.868 845.191 578.963 844.188L578.564 843.767C577.461 842.664 576.137 841.711 574.59 840.909C573.237 840.207 571.757 839.607 570.152 839.108L569.457 838.901L565.598 837.737C564.66 837.468 563.782 837.16 562.963 836.814C562.246 836.498 561.609 836.148 561.049 835.765L560.814 835.6C560.201 835.137 559.727 834.604 559.392 834.002C559.072 833.399 558.948 832.709 559.022 831.931C559.077 830.995 559.395 830.173 559.977 829.467C560.499 828.851 561.198 828.37 562.074 828.024L562.461 827.884C563.521 827.519 564.802 827.381 566.305 827.469L566.714 827.498C568.731 827.672 570.318 828.24 571.475 829.201C572.633 830.163 573.279 831.432 573.413 833.009C573.424 833.191 573.57 833.336 573.752 833.347L577.539 833.568C580.133 833.72 582.466 831.648 581.642 829.183C581.42 828.519 581.139 827.878 580.799 827.262L580.576 826.874C579.344 824.824 577.548 823.175 575.188 821.927C572.989 820.758 570.4 820.054 567.421 819.814L566.82 819.772ZM444.243 812.601C441.365 812.433 438.663 812.781 436.136 813.643L435.666 813.81C433.33 814.675 431.238 815.96 429.391 817.666L429.026 818.013C427.224 819.772 425.761 821.926 424.638 824.475C423.456 827.18 422.761 830.298 422.554 833.829L422.514 834.683C422.367 838.923 423.006 842.659 424.431 845.891C425.966 849.324 428.226 852.039 431.211 854.035C434.011 855.893 437.293 856.985 441.057 857.311L441.816 857.366C445.246 857.567 448.353 857.099 451.136 855.961L451.688 855.724C454.611 854.401 456.961 852.418 458.738 849.776C460.515 847.12 461.516 843.877 461.74 840.048C461.917 837.017 459.604 834.417 456.573 834.239L447.299 833.697C445.384 833.585 443.741 835.047 443.629 836.962C443.517 838.876 444.979 840.519 446.893 840.631L448.053 840.699C450.648 840.851 452.766 843.293 451.328 845.458C450.468 846.774 449.272 847.764 447.739 848.428C446.221 849.079 444.42 849.344 442.336 849.222L441.909 849.191C439.936 849.014 438.221 848.429 436.764 847.433L436.456 847.213C434.935 846.071 433.777 844.505 432.981 842.516L432.827 842.113C432.08 840.068 431.761 837.649 431.87 834.854L431.897 834.29C432.074 831.256 432.693 828.716 433.751 826.672C434.811 824.614 436.21 823.081 437.948 822.073C439.7 821.066 441.69 820.627 443.916 820.757L444.357 820.79C445.374 820.882 446.303 821.084 447.144 821.394C448.119 821.75 448.973 822.234 449.705 822.846C450.453 823.445 451.072 824.164 451.564 825.003C451.995 825.726 452.328 826.536 452.563 827.432C452.62 827.663 452.821 827.83 453.059 827.844L456.322 828.035C459.333 828.211 461.871 825.609 460.603 822.872C460.52 822.693 460.433 822.514 460.343 822.338C459.458 820.592 458.292 819.047 456.846 817.706L456.553 817.441C454.984 816.04 453.157 814.923 451.071 814.09C448.987 813.242 446.711 812.746 444.243 812.601ZM521.845 817.739C517.435 817.481 513.65 820.847 513.392 825.258L511.778 852.848C511.52 857.258 514.886 861.043 519.297 861.301L536.952 862.334C539.049 862.456 540.848 860.856 540.97 858.76C541.093 856.663 539.493 854.864 537.396 854.741L526.165 854.084C523.293 853.915 521.101 851.451 521.269 848.579C521.437 845.707 523.901 843.515 526.773 843.682L536.41 844.246C538.506 844.369 540.305 842.768 540.428 840.672C540.551 838.575 538.95 836.775 536.853 836.653L527.208 836.088C524.341 835.921 522.153 833.461 522.321 830.594C522.489 827.728 524.948 825.54 527.815 825.708L538.972 826.36C541.068 826.483 542.867 824.883 542.99 822.786C543.113 820.689 541.512 818.89 539.415 818.767L521.845 817.739ZM591.922 821.839C589.825 821.716 588.025 823.316 587.902 825.413C587.78 827.51 589.381 829.309 591.477 829.432L594.349 829.6C598.031 829.816 600.842 832.976 600.627 836.658L599.179 861.407C599.032 863.921 600.951 866.078 603.464 866.225C605.978 866.372 608.135 864.454 608.282 861.94L609.73 837.191C609.946 833.508 613.106 830.697 616.789 830.913L619.661 831.081C621.757 831.203 623.556 829.603 623.679 827.506C623.802 825.409 622.202 823.61 620.105 823.487L591.922 821.839ZM561.323 848.942C560.81 848.78 560.289 849.166 560.294 849.704C560.302 850.526 560.484 850.975 560.652 851.236C560.902 851.586 561.271 851.918 561.878 852.205C562.592 852.522 563.504 852.752 564.673 852.821C565.857 852.89 566.702 852.765 567.292 852.571L567.308 852.566C567.964 852.353 568.243 852.115 568.364 851.978C568.422 851.914 568.439 851.875 568.447 851.857C568.482 851.771 568.436 851.674 568.364 851.615C568.215 851.494 567.966 851.323 567.564 851.124L567.557 851.121L567.548 851.116C566.844 850.765 565.92 850.394 564.746 850.016L564.228 849.854L564.209 849.848L564.191 849.843L561.323 848.942ZM443.682 824.75C442.157 824.661 440.959 824.958 439.954 825.532C438.974 826.101 438.072 827.019 437.308 828.503L437.303 828.512C436.571 829.925 436.045 831.879 435.89 834.524L435.866 835.013C435.779 837.264 436.021 839.049 436.482 840.447L436.584 840.74C437.154 842.299 437.938 843.32 438.853 844.01C439.765 844.683 440.946 845.134 442.569 845.229C444.189 845.324 445.339 845.103 446.155 844.754C446.24 844.717 446.216 844.599 446.124 844.593L440.753 844.279C439.895 844.229 439.24 843.492 439.29 842.635L439.848 833.102C439.972 830.984 441.79 829.368 443.908 829.491L447.886 829.724C448.445 829.757 448.879 829.246 448.756 828.7C448.601 828.01 448.38 827.474 448.129 827.052L448.121 827.038L448.112 827.025C447.863 826.6 447.564 826.256 447.205 825.968L447.172 825.943L447.141 825.915C446.836 825.661 446.46 825.429 445.983 825.233L445.773 825.152L445.757 825.147C445.222 824.949 444.542 824.801 443.682 824.75ZM566.071 831.463C564.921 831.395 564.192 831.519 563.763 831.667L563.74 831.674L563.718 831.682C563.265 831.832 563.098 831.981 563.046 832.036C563.041 832.043 563.037 832.048 563.036 832.051C563.033 832.056 563.032 832.058 563.031 832.059C563.031 832.061 563.028 832.068 563.025 832.082C563.022 832.096 563.018 832.123 563.015 832.164C563.013 832.199 563.025 832.234 563.05 832.258C563.09 832.298 563.14 832.342 563.202 832.389C563.541 832.634 563.987 832.891 564.564 833.147C565.045 833.349 565.561 833.539 566.115 833.715L566.698 833.891L566.726 833.898L566.754 833.907L568.298 834.373C568.879 834.548 569.461 834.098 569.436 833.491C569.412 832.886 569.258 832.597 569.024 832.372L568.92 832.279C568.55 831.971 567.749 831.561 566.071 831.463Z" fill="white"/>
<path d="M-329.493 461.776C-333.612 463.375 -338.247 461.332 -339.846 457.213L-398.105 307.123C-399.654 303.133 -397.785 298.659 -393.922 296.93L-393.542 296.771L5.45341 141.895L5.84148 141.755C9.72965 140.469 13.9734 142.339 15.647 146.077L15.8061 146.458L74.0656 296.547C75.6644 300.666 73.6215 305.301 69.5026 306.9L-329.493 461.776ZM8.34829 149.352L-23.3476 161.656L34.9118 311.745L66.6077 299.442L8.34829 149.352ZM-30.8055 164.551L-293.695 266.595L-235.436 416.684L27.4539 314.64L-30.8055 164.551ZM-301.153 269.49L-390.647 304.228L-332.388 454.318L-242.893 419.579L-301.153 269.49ZM-195.013 277.634C-197.072 278.433 -199.39 277.412 -200.189 275.353C-200.989 273.293 -199.967 270.976 -197.908 270.176L-96.2946 230.733C-94.2351 229.934 -91.9176 230.956 -91.1182 233.015C-90.3191 235.074 -91.3404 237.392 -93.3997 238.191L-195.013 277.634ZM-347.543 347.568C-348.831 348.068 -350.279 347.429 -350.779 346.142C-351.278 344.855 -350.64 343.406 -349.353 342.907L-306.47 326.261C-305.183 325.762 -303.734 326.4 -303.235 327.687C-302.735 328.974 -303.374 330.423 -304.661 330.922L-347.543 347.568ZM-343.459 356.709C-345.003 357.309 -346.741 356.543 -347.341 354.998C-347.941 353.454 -347.174 351.715 -345.63 351.116L-303.679 334.832C-302.135 334.233 -300.397 334.999 -299.797 336.543C-299.198 338.088 -299.964 339.826 -301.508 340.426L-343.459 356.709ZM-218.957 312.673C-221.016 313.472 -223.334 312.451 -224.133 310.391C-224.932 308.332 -223.911 306.014 -221.851 305.215L-56.8463 241.166C-54.7868 240.366 -52.4693 241.388 -51.6699 243.447C-50.8705 245.507 -51.892 247.824 -53.9514 248.624L-218.957 312.673ZM-339.84 366.032C-341.385 366.631 -343.123 365.865 -343.722 364.321C-344.322 362.776 -343.556 361.038 -342.011 360.438L-300.061 344.155C-298.516 343.555 -296.778 344.321 -296.179 345.866C-295.579 347.41 -296.345 349.148 -297.89 349.748L-339.84 366.032ZM-339.533 372.349C-340.048 372.549 -340.628 372.293 -340.827 371.778C-341.027 371.264 -340.772 370.684 -340.257 370.484L-294.578 352.753C-294.063 352.553 -293.484 352.809 -293.284 353.324C-293.084 353.838 -293.339 354.418 -293.854 354.618L-339.533 372.349ZM-178.576 322.743C-180.635 323.542 -182.953 322.521 -183.752 320.462C-184.552 318.402 -183.53 316.085 -181.471 315.285L-79.8575 275.843C-77.7981 275.043 -75.4806 276.065 -74.6812 278.124C-73.8818 280.183 -74.9032 282.501 -76.9627 283.3L-178.576 322.743ZM-336.534 378.693C-337.307 378.993 -338.176 378.61 -338.475 377.838C-338.775 377.066 -338.392 376.197 -337.62 375.897L-292.873 358.527C-292.1 358.228 -291.231 358.611 -290.932 359.383C-290.632 360.155 -291.015 361.024 -291.787 361.324L-336.534 378.693ZM-333.173 385.97C-334.203 386.37 -335.362 385.859 -335.761 384.83C-336.161 383.8 -335.65 382.641 -334.621 382.241L-290.806 365.234C-289.776 364.834 -288.617 365.345 -288.218 366.375C-287.818 367.404 -288.329 368.563 -289.358 368.963L-333.173 385.97ZM-38.3606 321.951C-40.42 322.75 -42.7375 321.729 -43.5369 319.67C-44.3363 317.61 -43.3149 315.293 -41.2554 314.493L-1.16943 298.933C0.889996 298.134 3.20754 299.155 4.00693 301.215C4.80633 303.274 3.78487 305.592 1.72544 306.391L-38.3606 321.951ZM-98.0234 345.11C-100.083 345.91 -102.4 344.888 -103.2 342.829C-103.999 340.769 -102.978 338.452 -100.918 337.652L-60.8323 322.092C-58.7729 321.293 -56.4553 322.314 -55.6559 324.374C-54.8566 326.433 -55.878 328.751 -57.9374 329.55L-98.0234 345.11Z" fill="white"/>
<path d="M340.208 624.628C344.619 624.374 348.401 627.743 348.656 632.154L362.765 876.747C363.011 881.02 359.857 884.703 355.65 885.16L355.239 885.195L22.7916 904.372L22.3796 904.385C18.1475 904.414 14.5907 901.119 14.3442 896.846L0.235 652.252C-0.0194421 647.841 3.35007 644.059 7.76102 643.805L340.208 624.628ZM17.8192 887.63L18.3375 896.615C18.4648 898.821 20.3558 900.506 22.5613 900.378L355.009 881.201C357.214 881.074 358.899 879.183 358.772 876.978L358.253 867.993L17.8192 887.63ZM7.99137 647.798C5.7859 647.925 4.10114 649.817 4.22836 652.022L16.6675 867.664L311.7 850.645C311.728 850.079 311.868 849.445 312.006 848.896C312.2 848.131 312.479 847.202 312.817 846.17C313.494 844.099 314.44 841.504 315.486 838.756C317.58 833.253 320.113 827.051 321.806 823.017L321.936 822.709L322.157 822.461C324.003 820.389 326.721 816.654 328.751 812.315C330.798 807.941 332.02 803.222 331.254 799.06C330.516 795.049 328.15 792.774 325.392 791.485C322.646 790.201 319.544 789.928 317.483 790.084C314.317 791.12 307.042 794.555 302.227 800.35C299.409 803.742 295.128 806.988 291.045 809.633C286.932 812.297 282.867 814.45 280.352 815.628L278.122 816.673L277.556 814.276C273.34 796.403 268.773 785.772 264.878 779.753C262.931 776.743 261.199 774.961 259.835 773.987C258.439 772.99 257.617 772.962 257.364 773.008L255.679 773.319L253.914 768.265L253.737 767.758L253.837 767.232L254.42 764.153L252.942 762.51L251.746 761.179L252.021 760.869C251.988 760.802 251.967 760.751 251.957 760.727C251.792 760.325 251.697 759.754 251.625 759.274C251.453 758.132 251.234 756.112 250.95 752.923C250.421 746.987 248.27 743.642 246.035 741.788C243.749 739.89 241.191 739.4 239.656 739.488C231.95 739.933 227.783 743.415 225.543 747.447C223.252 751.571 222.886 756.459 223.283 759.721L226.495 772.423L227.241 775.376L224.236 774.887C222.746 774.645 218.12 773.948 211.678 773.121C210.822 773.011 209.856 773.321 208.725 774.303C207.582 775.295 206.452 776.827 205.394 778.715C203.286 782.479 201.719 787.196 200.934 790.39L199.952 794.391L197.416 791.145L192.549 784.915L191.439 783.493L192.739 782.242C193.37 781.635 194.438 780.729 195.677 779.894C196.868 779.09 198.382 778.24 199.908 777.88C199.948 777.834 200.027 777.72 200.124 777.471C200.345 776.902 200.5 776.025 200.582 774.856C200.662 773.713 200.664 772.452 200.661 771.168C200.658 769.924 200.649 768.62 200.722 767.529C200.817 766.107 200.448 765.123 199.345 764.14C198.083 763.016 195.842 761.89 192.051 760.621C191.143 760.318 190.53 760.478 189.969 760.888C189.298 761.379 188.612 762.316 187.992 763.708C186.761 766.474 186.142 770.229 185.975 772.875L185.678 777.59L173.409 764.103L172.543 763.15L173.051 761.967L174.864 757.75L179.975 757.455L180.822 751.978L181.069 750.38L183.296 750.252L182.735 748.984L182.474 748.394L182.608 747.761L183.789 742.184L183.82 742.04L183.871 741.903C184.189 741.044 184.207 739.793 183.31 738.737C182.379 737.64 180.078 736.291 174.717 736.218C169.851 736.151 167.036 738.289 165.356 740.946C163.599 743.726 163.045 747.173 163.103 749.478L163.201 753.32L159.998 751.195C158.232 750.023 155.718 748.211 154.024 746.621C153.595 746.218 153.188 745.802 152.85 745.391C152.534 745.006 152.176 744.506 151.97 743.94C151.763 743.371 151.571 742.273 152.394 741.334C153.076 740.556 154.034 740.421 154.567 740.39C155.462 740.338 156.012 740.217 156.428 740.009C156.805 739.819 157.229 739.479 157.701 738.699C158.735 736.991 159.731 733.664 160.86 727.055C161.252 724.763 160.969 723.037 160.369 721.721C159.763 720.396 158.768 719.342 157.513 718.51C154.998 716.844 151.623 716.204 149.197 716.167C144.817 716.918 138.253 717.643 132.55 717.384C129.673 717.254 126.864 716.868 124.634 716.02C122.442 715.187 120.318 713.697 119.837 711.089C119.679 710.227 118.897 709.049 117.157 707.646C115.479 706.293 113.195 704.957 110.609 703.707C105.446 701.211 99.3916 699.203 95.4018 698.124L93.7225 697.67L93.9398 695.943C94.4832 691.636 94.2789 685.05 91.9786 679.36C89.7181 673.768 85.5066 669.148 77.9054 668.15C74.0356 667.641 71.1603 668.304 68.9958 669.569C66.8132 670.846 65.1767 672.839 63.9851 675.277C61.5706 680.22 61.1563 686.645 61.5725 691.092L61.7007 692.466L60.4621 693.073C57.3295 694.61 52.285 696.881 47.2933 698.712C44.7982 699.628 42.2836 700.446 40.0091 701.007C37.7804 701.556 35.6039 701.904 33.8585 701.757C33.199 701.701 32.4125 701.965 31.4567 702.836C30.4941 703.714 29.5393 705.054 28.6458 706.71C26.976 709.803 25.7244 713.601 25.0443 716.344L30.9564 734.489L30.9708 734.535L30.9833 734.582L39.8276 766.962L47.7876 784.386L45.9682 785.218L44.1488 786.049L36.1238 768.482L36.0566 768.334L36.0143 768.178L27.1417 735.697L21.0665 717.048L20.8941 716.518L21.0203 715.976C21.7143 712.99 23.1214 708.522 25.1253 704.81C26.1244 702.959 27.3324 701.182 28.7624 699.879C30.1993 698.569 32.0373 697.588 34.1959 697.771C35.2688 697.861 36.9248 697.647 39.0514 697.123C41.1326 696.61 43.4982 695.844 45.9156 694.957C50.151 693.403 54.4484 691.513 57.4901 690.067C57.2329 685.291 57.7986 678.829 60.3917 673.522C61.8354 670.567 63.9491 667.887 66.9762 666.116C70.0219 664.335 73.8177 663.578 78.4259 664.183C87.7808 665.412 93.0214 671.266 95.6875 677.86C98.0149 683.618 98.4316 690.018 98.0775 694.722C102.141 695.909 107.573 697.797 112.35 700.106C115.07 701.421 117.657 702.91 119.669 704.532C121.618 706.105 123.346 708.056 123.771 710.365C123.875 710.929 124.374 711.642 126.055 712.281C127.7 712.906 130.018 713.265 132.731 713.388C138.125 713.632 144.488 712.929 148.704 712.194L148.879 712.164L149.057 712.164C151.966 712.178 156.287 712.899 159.722 715.174C161.469 716.331 163.032 717.922 164.007 720.059C164.987 722.206 165.311 724.761 164.804 727.728C163.993 732.478 163.197 735.916 162.257 738.379C164.659 734.843 168.657 732.134 174.772 732.218C180.639 732.298 184.344 733.775 186.36 736.148C188.346 738.487 188.314 741.248 187.679 743.118L186.655 747.957L188.122 751.273L189.289 753.913L184.528 754.187L183.681 759.664L183.434 761.262L177.563 761.601L177.234 762.363L182.538 768.192C182.917 766.141 183.498 763.969 184.338 762.081C185.085 760.403 186.129 758.742 187.609 757.659C189.201 756.496 191.165 756.106 193.321 756.828C197.19 758.123 200.099 759.455 202.005 761.153C204.069 762.992 204.886 765.195 204.713 767.796C204.651 768.715 204.658 769.853 204.661 771.159C204.662 771.67 204.66 772.204 204.655 772.744C205.115 772.212 205.598 771.72 206.103 771.282C207.75 769.853 209.814 768.849 212.187 769.153C216.227 769.672 219.565 770.143 221.878 770.483L219.373 760.569L219.343 760.452L219.328 760.333C218.833 756.469 219.212 750.607 222.047 745.504C224.956 740.266 230.36 736.018 239.426 735.495C241.884 735.353 245.459 736.112 248.59 738.71C251.594 741.203 254.036 745.26 254.811 751.443L255.595 752.482L258.849 756.802L259.835 758.112L258.745 759.336L257.112 761.167L258.057 762.217L258.72 762.954L258.535 763.927L257.866 767.452L258.431 769.069C259.649 769.265 260.916 769.843 262.16 770.731C264.06 772.088 266.115 774.301 268.236 777.58C272.285 783.838 276.749 794.252 280.858 810.916C283.113 809.754 285.98 808.149 288.87 806.277C292.849 803.699 296.724 800.715 299.151 797.794C304.722 791.09 312.98 787.296 316.488 786.201L316.689 786.138L316.898 786.118C319.492 785.875 323.461 786.165 327.087 787.861C330.797 789.595 334.175 792.833 335.188 798.336C336.173 803.689 334.57 809.317 332.374 814.011C330.242 818.567 327.429 822.496 325.372 824.859C323.692 828.869 321.248 834.863 319.224 840.178C318.187 842.905 317.268 845.432 316.619 847.414C316.294 848.407 316.046 849.238 315.885 849.875C315.829 850.097 315.791 850.274 315.763 850.41L357.102 848.026L344.662 632.384C344.535 630.179 342.644 628.494 340.439 628.621L7.99137 647.798ZM199.295 782.381C198.849 782.613 198.382 782.893 197.913 783.21C197.546 783.457 197.197 783.712 196.879 783.959L198.153 785.589C198.488 784.556 198.869 783.474 199.295 782.381ZM160.553 741.607C159.89 742.475 159.124 743.13 158.221 743.583C157.854 743.767 157.481 743.906 157.108 744.016C157.77 744.607 158.561 745.244 159.378 745.859C159.604 744.495 159.979 743.04 160.553 741.607ZM327.301 678.762C329.506 678.629 331.401 680.308 331.534 682.514C331.668 684.719 329.989 686.614 327.784 686.747L236.953 692.241C234.748 692.375 232.852 690.695 232.718 688.49C232.585 686.284 234.265 684.389 236.47 684.256L327.301 678.762ZM325.846 651.51C328.051 651.377 329.946 653.057 330.08 655.262C330.213 657.467 328.534 659.362 326.329 659.496L283.407 662.092C281.202 662.225 279.306 660.546 279.173 658.34C279.039 656.136 280.719 654.24 282.924 654.107L325.846 651.51Z" fill="white"/>
<path d="M705.1 -34.439C708.502 -31.6201 708.975 -26.5769 706.156 -23.1747L549.844 165.482C547.114 168.778 542.296 169.325 538.904 166.793L538.58 166.539L282.16 -45.9183L281.85 -46.1895C278.732 -49.0514 278.373 -53.8868 281.104 -57.1826L437.416 -245.84C440.235 -249.242 445.278 -249.715 448.68 -246.896L705.1 -34.439ZM289.926 -61.5608L284.184 -54.6306C282.775 -52.9295 283.011 -50.4079 284.712 -48.9984L541.132 163.458C542.833 164.868 545.355 164.631 546.764 162.93L552.506 156L289.926 -61.5608ZM446.128 -243.816C444.427 -245.225 441.906 -244.989 440.496 -243.288L302.686 -76.9614L530.248 111.585C530.654 111.19 531.188 110.821 531.664 110.513C532.326 110.085 533.163 109.596 534.114 109.07C536.021 108.016 538.481 106.76 541.119 105.461C546.401 102.86 552.48 100.045 556.468 98.2461L556.773 98.1093L557.104 98.0782C559.867 97.8191 564.401 96.9367 568.843 95.1438C573.321 93.3365 577.431 90.7154 579.706 87.1466C581.899 83.7073 581.716 80.4303 580.576 77.6076C579.441 74.7968 577.356 72.4833 575.741 71.194C572.717 69.7947 565.053 67.353 557.579 68.3145C553.205 68.8773 547.86 68.3374 543.069 67.4917C538.243 66.64 533.801 65.4461 531.157 64.5949L528.813 63.8402L530.032 61.7008C539.123 45.7441 543.022 34.8513 544.272 27.7917C544.897 24.262 544.843 21.7778 544.508 20.1348C544.166 18.4541 543.584 17.8737 543.367 17.7353L541.922 16.8145L544.073 11.9125L544.289 11.4214L544.72 11.1042L547.245 9.24802L547.282 7.03827L547.313 5.24878L547.726 5.20935C547.748 5.13709 547.767 5.08599 547.776 5.06179C547.929 4.65513 548.249 4.17219 548.523 3.77181C549.175 2.81855 550.391 1.19038 552.355 -1.33778C556.012 -6.04309 556.717 -9.95676 556.344 -12.8365C555.963 -15.7836 554.426 -17.8849 553.241 -18.866C547.297 -23.791 541.875 -24.0808 537.488 -22.6552C533.002 -21.1972 529.404 -17.8682 527.472 -15.2097L521.169 -3.72428L519.703 -1.05398L517.836 -3.45965C516.911 -4.65183 513.999 -8.31319 509.848 -13.3076C509.296 -13.9714 508.377 -14.4025 506.88 -14.4546C505.368 -14.5073 503.497 -14.1556 501.437 -13.4941C497.328 -12.1749 492.968 -9.78949 490.217 -7.98599L486.773 -5.72659L487.128 -9.83042L487.81 -17.7066L487.966 -19.5037L489.769 -19.5341C490.645 -19.5487 492.044 -19.4842 493.52 -19.2519C494.94 -19.0283 496.627 -18.6196 497.989 -17.8433C498.05 -17.8497 498.185 -17.8792 498.425 -17.9953C498.976 -18.2607 499.686 -18.7972 500.543 -19.5976C501.38 -20.3796 502.241 -21.3014 503.113 -22.2431C503.959 -23.1563 504.84 -24.1165 505.637 -24.8657C506.675 -25.8414 507.076 -26.8129 506.938 -28.2848C506.781 -29.967 505.907 -32.3185 503.996 -35.8296C503.539 -36.6701 502.98 -36.9706 502.29 -37.0526C501.464 -37.1507 500.325 -36.9322 498.923 -36.3353C496.136 -35.1489 493.125 -32.8223 491.2 -30.999L487.77 -27.7506L487.978 -45.9816L487.993 -47.2689L489.171 -47.7893L493.371 -49.641L497.313 -46.3749L501.665 -49.8068L502.934 -50.8081L504.652 -49.385L505.105 -50.6947L505.317 -51.3047L505.846 -51.6768L510.51 -54.955L510.63 -55.0391L510.761 -55.1047C511.579 -55.5168 512.445 -56.4196 512.508 -57.8042C512.573 -59.2412 511.808 -61.7969 507.934 -65.5025C504.417 -68.8669 500.9 -69.2199 497.86 -68.419C494.679 -67.581 491.926 -65.4354 490.398 -63.7085L487.852 -60.8294L486.955 -64.5675C486.461 -66.6282 485.855 -69.6676 485.699 -71.9853C485.659 -72.5726 485.645 -73.1545 485.677 -73.686C485.708 -74.1824 485.786 -74.7922 486.022 -75.3474C486.258 -75.9043 486.865 -76.8393 488.107 -76.9662C489.137 -77.0711 489.93 -76.5173 490.341 -76.1769C491.032 -75.6046 491.516 -75.3188 491.963 -75.1881C492.368 -75.0695 492.91 -75.0303 493.788 -75.2794C495.708 -75.8245 498.704 -77.5818 504.033 -81.6505C505.881 -83.0619 506.85 -84.5172 507.307 -85.8899C507.767 -87.2726 507.757 -88.7219 507.404 -90.186C506.698 -93.1186 504.663 -95.8867 502.913 -97.5668C499.195 -100.001 493.896 -103.943 489.898 -108.017C487.881 -110.072 486.087 -112.269 485.033 -114.408C483.996 -116.512 483.456 -119.05 484.881 -121.286C485.352 -122.025 485.583 -123.42 485.265 -125.633C484.958 -127.766 484.197 -130.3 483.155 -132.977C481.076 -138.322 478.012 -143.916 475.827 -147.424L474.907 -148.901L476.243 -150.017C479.575 -152.8 483.912 -157.76 486.105 -163.493C488.26 -169.126 488.325 -175.377 483.441 -181.286C480.955 -184.295 478.398 -185.769 475.952 -186.317C473.484 -186.87 470.929 -186.526 468.395 -185.553C463.26 -183.58 458.58 -179.159 455.855 -175.62L455.012 -174.527L453.692 -174.926C450.352 -175.935 445.112 -177.71 440.21 -179.77C437.76 -180.8 435.362 -181.914 433.315 -183.053C431.31 -184.17 429.479 -185.398 428.302 -186.695C427.857 -187.185 427.101 -187.527 425.808 -187.541C424.506 -187.554 422.894 -187.223 421.112 -186.62C417.782 -185.494 414.278 -183.566 411.911 -182.022L403.877 -164.712L403.856 -164.668L403.833 -164.625L388.247 -134.897L382.203 -116.719L380.304 -117.35L378.407 -117.981L384.5 -136.308L384.552 -136.462L384.627 -136.605L400.262 -166.426L408.52 -184.216L408.755 -184.722L409.217 -185.033C411.759 -186.745 415.833 -189.058 419.829 -190.41C421.822 -191.084 423.916 -191.561 425.851 -191.541C427.795 -191.521 429.809 -190.987 431.265 -189.383C431.988 -188.585 433.346 -187.614 435.26 -186.549C437.133 -185.506 439.386 -184.455 441.76 -183.457C445.919 -181.709 450.353 -180.165 453.565 -179.152C456.63 -182.823 461.446 -187.167 466.961 -189.286C470.031 -190.465 473.404 -190.987 476.826 -190.221C480.269 -189.449 483.563 -187.418 486.524 -183.835C492.535 -176.562 492.383 -168.707 489.842 -162.063C487.623 -156.263 483.567 -151.294 480.103 -148.092C482.269 -144.454 484.96 -139.372 486.883 -134.427C487.978 -131.612 488.857 -128.759 489.225 -126.201C489.581 -123.721 489.516 -121.117 488.254 -119.136C487.946 -118.653 487.825 -117.791 488.62 -116.178C489.399 -114.599 490.851 -112.758 492.754 -110.819C496.535 -106.965 501.672 -103.145 505.259 -100.811L505.408 -100.714L505.538 -100.592C507.657 -98.6004 510.329 -95.1283 511.294 -91.1229C511.784 -89.0855 511.844 -86.8563 511.102 -84.6271C510.358 -82.3882 508.853 -80.2977 506.461 -78.4706C502.631 -75.5466 499.706 -73.5722 497.34 -72.4096C501.508 -73.3613 506.28 -72.6206 510.699 -68.3932C514.939 -64.3371 516.645 -60.7319 516.504 -57.622C516.364 -54.5562 514.46 -52.5568 512.721 -51.6202L508.675 -48.776L507.489 -45.3489L506.545 -42.622L502.873 -45.6644L498.521 -42.2325L497.252 -41.2312L492.723 -44.9833L491.963 -44.6491L491.874 -36.7688C493.55 -38.0119 495.454 -39.206 497.355 -40.0154C499.046 -40.7353 500.941 -41.2404 502.763 -41.0239C504.721 -40.7911 506.423 -39.7385 507.51 -37.7411C509.461 -34.1569 510.682 -31.2002 510.92 -28.6582C511.178 -25.906 510.276 -23.7369 508.377 -21.9516C507.705 -21.3202 506.935 -20.4831 506.048 -19.5249C505.7 -19.1495 505.336 -18.7605 504.963 -18.369C505.662 -18.4447 506.351 -18.4755 507.02 -18.4522C509.199 -18.3763 511.394 -17.7048 512.923 -15.8653C515.527 -12.7332 517.649 -10.1146 519.111 -8.28917L524.031 -17.2536L524.089 -17.3589L524.159 -17.457C526.43 -20.6225 530.701 -24.6553 536.252 -26.4593C541.951 -28.3112 548.801 -27.7397 555.793 -21.9461C557.689 -20.3753 559.789 -17.3841 560.311 -13.3493C560.812 -9.47739 559.835 -4.84418 556.19 0.209957L556.056 1.50497L555.495 6.88412L555.325 8.51471L553.692 8.66774L551.25 8.89609L551.226 10.3083L551.209 11.2989L550.411 11.8856L547.52 14.0099L546.831 15.5788C547.59 16.5516 548.123 17.8386 548.428 19.3359C548.895 21.6237 548.891 24.6436 548.21 28.4892C546.911 35.8282 543.083 46.4929 534.739 61.4904C537.18 62.1766 540.373 62.9544 543.764 63.553C548.433 64.377 553.302 64.8327 557.068 64.3481C565.714 63.2357 574.344 66.0849 577.658 67.6733L577.848 67.7644L578.015 67.8924C580.079 69.4818 582.786 72.3979 584.286 76.1092C585.82 79.907 586.087 84.5781 583.079 89.2967C580.153 93.8858 575.146 96.9139 570.34 98.8534C565.675 100.736 560.939 101.696 557.824 102.024C553.861 103.815 547.989 106.537 542.886 109.05C540.269 110.338 537.875 111.562 536.05 112.571C535.135 113.077 534.388 113.515 533.835 113.872C533.643 113.997 533.495 114.1 533.382 114.181L565.266 140.6L703.076 -25.7268C704.486 -27.4279 704.249 -29.9495 702.548 -31.3589L446.128 -243.816ZM494.474 -14.9663C493.99 -15.1001 493.457 -15.2126 492.898 -15.3006C492.461 -15.3695 492.031 -15.4207 491.63 -15.457L491.452 -13.3951C492.401 -13.9232 493.418 -14.4557 494.474 -14.9663ZM493.894 -71.2077C492.817 -71.024 491.81 -71.0661 490.84 -71.35C490.446 -71.4652 490.079 -71.6175 489.731 -71.7911C489.812 -70.9073 489.958 -69.902 490.137 -68.8954C491.231 -69.7404 492.497 -70.5492 493.894 -71.2077ZM658.77 -3.6065C660.475 -2.2018 660.718 0.319211 659.314 2.02423C657.909 3.7292 655.389 3.97265 653.684 2.56806L583.452 -55.2927C581.747 -56.6974 581.503 -59.2191 582.908 -60.9241C584.313 -62.6289 586.834 -62.8719 588.539 -61.4673L658.77 -3.6065ZM676.272 -24.5459C677.977 -23.1411 678.22 -20.6201 676.815 -18.9151C675.41 -17.2102 672.89 -16.9669 671.185 -18.3713L637.997 -45.7132C636.292 -47.1179 636.049 -49.6395 637.453 -51.3445C638.858 -53.0493 641.379 -53.2924 643.084 -51.8877L676.272 -24.5459Z" fill="white"/>
<path d="M419.371 333.73C422.935 331.118 427.941 331.889 430.553 335.452L496.769 425.781C499.3 429.233 498.655 434.039 495.373 436.711L495.047 436.963L282.128 593.045L281.789 593.28C278.254 595.606 273.477 594.774 270.946 591.322L204.73 500.993C202.118 497.43 202.889 492.423 206.452 489.811L419.371 333.73ZM277.398 586.593L298.368 571.221L232.151 480.892L211.182 496.263L277.398 586.593ZM304.82 566.491L458.863 453.569L392.647 363.239L238.603 476.162L304.82 566.491ZM465.316 448.839L490.317 430.511L424.101 340.182L399.099 358.51L465.316 448.839ZM403.15 442.59C403.84 442.076 404.816 442.219 405.33 442.909L422.45 465.894C422.964 466.583 422.821 467.559 422.131 468.073C421.441 468.587 420.466 468.444 419.952 467.754L402.832 444.77C402.318 444.081 402.461 443.104 403.15 442.59ZM407.898 439.054C408.725 438.438 409.896 438.609 410.513 439.437L427.26 461.922C427.877 462.75 427.706 463.921 426.879 464.538C426.051 465.154 424.88 464.982 424.263 464.154L407.514 441.67C406.898 440.842 407.07 439.671 407.898 439.054ZM412.894 435.332C413.722 434.716 414.893 434.886 415.51 435.714L432.258 458.199C432.875 459.027 432.703 460.199 431.875 460.815C431.047 461.432 429.876 461.26 429.26 460.432L412.512 437.947C411.895 437.119 412.067 435.949 412.894 435.332ZM416.892 432.355C417.168 432.149 417.557 432.207 417.763 432.483L436 456.966C436.205 457.242 436.148 457.632 435.873 457.838C435.597 458.043 435.206 457.986 435.001 457.711L416.764 433.227C416.558 432.951 416.616 432.56 416.892 432.355ZM420.14 429.936C420.554 429.628 421.139 429.713 421.447 430.127L439.311 454.111C439.619 454.525 439.534 455.11 439.12 455.418C438.707 455.727 438.122 455.641 437.813 455.228L419.948 431.244C419.64 430.83 419.726 430.244 420.14 429.936ZM423.887 427.145C424.438 426.734 425.219 426.848 425.63 427.399L443.123 450.884C443.534 451.435 443.42 452.216 442.868 452.627C442.316 453.038 441.536 452.924 441.124 452.373L423.632 428.888C423.221 428.337 423.335 427.556 423.887 427.145ZM369.463 434.79C373.027 432.178 378.033 432.949 380.645 436.513L384.784 442.158C387.396 445.722 386.625 450.728 383.061 453.34L328.219 493.543C324.655 496.155 319.649 495.384 317.037 491.82L312.898 486.175C310.286 482.611 311.057 477.605 314.621 474.993L369.463 434.79Z" fill="white"/>
<path d="M173.315 442.406C177.682 443.078 180.677 447.163 180.004 451.53L162.955 562.225C162.303 566.455 158.449 569.397 154.239 568.966L153.83 568.914L-107.093 528.726L-107.499 528.653C-111.644 527.797 -114.434 523.832 -113.782 519.601L-96.7328 408.907C-96.0602 404.54 -91.975 401.545 -87.6082 402.218L173.315 442.406ZM-105.875 520.819L-80.1785 524.777L-63.1291 414.082L-88.8261 410.125L-105.875 520.819ZM-72.2717 525.995L116.502 555.07L133.552 444.376L-55.2223 415.3L-72.2717 525.995ZM124.409 556.288L155.048 561.007L172.097 450.312L141.458 445.593L124.409 556.288ZM84.8699 507.912C85.7211 508.037 86.31 508.828 86.1857 509.679L82.0392 538.038C81.9147 538.889 81.1236 539.478 80.2724 539.353C79.4214 539.229 78.8322 538.438 78.9567 537.587L83.103 509.229C83.2275 508.378 84.0188 507.788 84.8699 507.912ZM90.7268 508.769C91.7481 508.919 92.4545 509.868 92.3052 510.89L88.2488 538.631C88.0995 539.652 87.1506 540.359 86.1292 540.21C85.1079 540.061 84.4015 539.112 84.5506 538.091L88.6071 510.349C88.7565 509.327 89.7053 508.62 90.7268 508.769ZM96.892 509.669C97.9135 509.819 98.6208 510.768 98.4714 511.79L94.4149 539.532C94.2654 540.553 93.3158 541.26 92.2945 541.11C91.2732 540.961 90.5667 540.012 90.7159 538.991L94.7724 511.249C94.9218 510.227 95.8706 509.52 96.892 509.669ZM101.823 510.391C102.163 510.441 102.399 510.757 102.35 511.098L97.933 541.306C97.883 541.646 97.5668 541.881 97.2266 541.831C96.8861 541.782 96.6503 541.465 96.7001 541.125L101.116 510.918C101.166 510.577 101.483 510.342 101.823 510.391ZM105.831 510.978C106.342 511.053 106.695 511.528 106.62 512.038L102.294 541.629C102.219 542.139 101.744 542.494 101.234 542.419C100.723 542.344 100.37 541.869 100.444 541.359L104.771 511.767C104.846 511.256 105.321 510.903 105.831 510.978ZM110.454 511.653C111.135 511.753 111.607 512.386 111.507 513.066L107.271 542.041C107.171 542.722 106.538 543.194 105.858 543.095C105.177 542.995 104.705 542.362 104.805 541.681L109.041 512.706C109.141 512.026 109.773 511.554 110.454 511.653ZM66.5646 478.577C70.9314 479.25 73.9262 483.335 73.2536 487.702L72.188 494.62C71.5154 498.987 67.4302 501.982 63.0634 501.309L-4.14408 490.958C-8.51086 490.285 -11.5056 486.2 -10.833 481.833L-9.76744 474.915C-9.09486 470.548 -5.00965 467.553 -0.642863 468.226L66.5646 478.577Z" fill="white"/>
</g>
<defs>
<clipPath id="clip0_199_2330">
<rect width="711" height="983" fill="white" transform="translate(0 -1)"/>
</clipPath>
</defs>
</svg>
