<svg width="761" height="982" viewBox="0 0 761 982" fill="none" xmlns="http://www.w3.org/2000/svg">
<g clip-path="url(#clip0_199_2329)">
<path d="M249.128 757.204C253.496 756.539 257.576 759.541 258.241 763.909L307.17 1085.2C307.814 1089.44 305.017 1093.4 300.871 1094.24L300.465 1094.32L59.2462 1131.05L58.8372 1131.1C54.6263 1131.53 50.7773 1128.58 50.133 1124.35L0 795.143L249.128 757.204ZM54.0874 1123.74C54.42 1125.93 56.46 1127.43 58.644 1127.1L299.863 1090.36C302.047 1090.03 303.548 1087.99 303.215 1085.81L254.287 764.511C253.954 762.327 251.914 760.826 249.73 761.159L4.55661 798.495L54.0874 1123.74ZM272.302 1015.66C276.67 1015 280.75 1018 281.416 1022.37L284.126 1040.16C284.77 1044.39 281.973 1048.35 277.827 1049.2L277.421 1049.27L67.8375 1081.19L67.4284 1081.24C63.3536 1081.65 59.6179 1078.9 58.7969 1074.89L58.7242 1074.49L54.81 1048.78L272.302 1015.66ZM62.6787 1073.88C63.0112 1076.07 65.0513 1077.57 67.2353 1077.24L276.819 1045.32C279.003 1044.99 280.504 1042.95 280.171 1040.76L277.461 1022.97C277.129 1020.78 275.089 1019.28 272.905 1019.62L59.3666 1052.13L62.6787 1073.88ZM264.926 967.219C269.293 966.554 273.374 969.556 274.039 973.924L276.749 991.719C277.393 995.95 274.596 999.911 270.45 1000.76L270.044 1000.83L60.4605 1032.75L60.0515 1032.8C55.9768 1033.21 52.2411 1030.46 51.42 1026.45L51.3473 1026.04L47.433 1000.34L264.926 967.219ZM55.3017 1025.44C55.6345 1027.63 57.6746 1029.13 59.8583 1028.79L269.442 996.877C271.626 996.545 273.127 994.505 272.794 992.321L270.084 974.526C269.752 972.342 267.712 970.841 265.528 971.174L51.9896 1003.69L55.3017 1025.44ZM257.549 918.778C261.917 918.113 265.997 921.114 266.662 925.482L269.372 943.277C270.016 947.508 267.219 951.469 263.073 952.318L262.667 952.39L53.0836 984.307L52.6746 984.358C48.5998 984.769 44.8642 982.02 44.0431 978.008L43.9704 977.602L40.0561 951.899L257.549 918.778ZM47.9248 977C48.2575 979.184 50.2976 980.685 52.4814 980.352L262.065 948.436C264.249 948.103 265.75 946.063 265.417 943.879L262.707 926.085C262.375 923.901 260.335 922.4 258.151 922.732L44.6127 955.251L47.9248 977ZM84.1246 847.897C87.4991 847.384 90.8284 849.068 92.4139 852.091L117.029 899.021L126.588 846.883C127.203 843.527 129.879 840.93 133.252 840.416L143.286 838.888C146.661 838.374 149.99 840.058 151.575 843.08L176.191 890.011L185.749 837.873C186.365 834.517 189.04 831.921 192.413 831.407L202.448 829.879C205.823 829.366 209.151 831.049 210.736 834.072L235.393 881.077C237.945 885.943 234.945 891.875 229.513 892.702L224.902 893.405C221.475 893.927 218.101 892.182 216.546 889.084L215.505 887.009C213.951 883.911 210.578 882.167 207.151 882.688L203.62 883.226C200.194 883.748 197.493 886.415 196.93 889.834L196.551 892.133C195.987 895.551 193.287 898.219 189.862 898.741L176.928 900.71C176.918 900.712 176.908 900.713 176.897 900.714L165.74 902.413C162.313 902.935 158.939 901.191 157.385 898.092L156.344 896.018C154.789 892.92 151.416 891.175 147.989 891.697L144.458 892.235C141.033 892.756 138.332 895.424 137.768 898.842L137.389 901.141C136.826 904.56 134.126 907.228 130.7 907.749L106.578 911.423C103.151 911.944 99.7776 910.2 98.223 907.102L97.1819 905.027C95.6272 901.929 92.2545 900.184 88.8278 900.706L85.2963 901.244C81.871 901.766 79.17 904.433 78.6064 907.852L78.2275 910.151C77.664 913.57 74.964 916.237 71.5387 916.759L66.9278 917.461C61.4942 918.288 56.8641 913.516 57.855 908.11L67.426 855.892C68.0412 852.536 70.717 849.939 74.0899 849.425L84.1246 847.897ZM195.834 834.933C192.461 835.446 189.785 838.043 189.17 841.398L180.666 887.789C179.899 891.973 183.483 895.666 187.687 895.026C190.338 894.622 192.427 892.558 192.863 889.913L193.456 886.317C194.019 882.898 196.72 880.231 200.145 879.709L209.422 878.296C212.849 877.775 216.222 879.519 217.776 882.617L219.407 885.867C220.61 888.264 223.221 889.614 225.873 889.211C230.077 888.57 232.398 883.98 230.423 880.214L208.518 838.456C206.933 835.433 203.605 833.75 200.23 834.263L195.834 834.933ZM77.5102 852.951C74.1372 853.464 71.4615 856.061 70.8463 859.417L62.3429 905.808C61.5762 909.992 65.1593 913.684 69.3638 913.044C72.0142 912.64 74.1037 910.576 74.5397 907.931L75.1321 904.335C75.6956 900.916 78.3966 898.249 81.8219 897.727L91.0987 896.314C94.5254 895.792 97.8981 897.537 99.4529 900.635L101.084 903.886C102.287 906.283 104.898 907.632 107.55 907.229C111.753 906.588 114.075 901.999 112.1 898.233L90.1961 856.475C88.6105 853.452 85.2812 851.767 81.9068 852.281L77.5102 852.951ZM136.672 843.941C133.299 844.455 130.623 847.052 130.008 850.408L121.505 896.799C120.738 900.982 124.321 904.674 128.525 904.034C131.176 903.631 133.265 901.567 133.701 898.921L134.294 895.325C134.857 891.907 137.558 889.239 140.984 888.717L150.26 887.305C153.687 886.783 157.06 888.528 158.615 891.626L160.245 894.875C161.448 897.273 164.059 898.623 166.711 898.219C170.915 897.579 173.236 892.988 171.261 889.223L149.358 847.464C147.772 844.441 144.443 842.758 141.068 843.272L136.672 843.941ZM200.035 847.741C200.168 847.721 200.301 847.789 200.361 847.91L207.331 861.8C208.965 865.056 206.946 868.96 203.344 869.509C199.741 870.057 196.652 866.929 197.245 863.333L199.774 847.999C199.796 847.866 199.901 847.762 200.035 847.741ZM81.711 865.759C81.8449 865.739 81.9774 865.808 82.0381 865.929L89.0076 879.819C90.6415 883.075 88.6227 886.978 85.0209 887.527C81.418 888.075 78.3293 884.948 78.9222 881.352L81.45 866.017C81.4722 865.884 81.5775 865.78 81.711 865.759ZM140.873 856.75C141.007 856.729 141.139 856.797 141.2 856.918L148.169 870.81C149.803 874.066 147.784 877.969 144.183 878.517C140.58 879.066 137.491 875.938 138.084 872.342L140.612 857.008C140.634 856.874 140.739 856.77 140.873 856.75ZM203.757 863.594C203.164 862.413 201.406 862.68 201.191 863.984C201.041 864.898 201.826 865.693 202.742 865.554C203.658 865.415 204.172 864.422 203.757 863.594ZM85.4332 881.613C84.8409 880.432 83.0838 880.699 82.8689 882.002C82.7182 882.917 83.5037 883.711 84.4197 883.572C85.335 883.432 85.8483 882.441 85.4332 881.613ZM144.595 872.602C144.002 871.422 142.245 871.69 142.031 872.993C141.88 873.907 142.665 874.702 143.581 874.563C144.497 874.423 145.01 873.43 144.595 872.602Z" fill="white"/>
<path d="M635.629 363.964C639.884 365.156 642.367 369.571 641.175 373.825L553.523 686.782C552.369 690.904 548.19 693.362 544.062 692.429L543.662 692.328L308.704 626.522L308.31 626.4C304.297 625.054 302.003 620.782 303.158 616.661L392.967 296L635.629 363.964ZM307.009 617.739C306.414 619.867 307.655 622.074 309.782 622.67L544.741 688.476C546.868 689.072 549.076 687.831 549.671 685.703L637.324 372.746C637.919 370.619 636.678 368.412 634.551 367.816L395.74 300.931L307.009 617.739ZM550.37 609.052C554.625 610.243 557.108 614.658 555.916 618.913L551.062 636.246C549.907 640.367 545.728 642.826 541.6 641.893L541.201 641.792L337.056 584.616L336.662 584.494C332.78 583.191 330.506 579.149 331.409 575.154L331.51 574.754L338.522 549.718L550.37 609.052ZM335.362 575.833C334.766 577.961 336.008 580.168 338.135 580.764L542.279 637.94C544.407 638.536 546.614 637.294 547.21 635.167L552.064 617.834C552.66 615.707 551.419 613.499 549.291 612.903L341.295 554.648L335.362 575.833ZM563.586 561.867C567.84 563.059 570.323 567.474 569.131 571.728L564.277 589.061C563.122 593.183 558.943 595.641 554.815 594.708L554.416 594.607L350.271 537.431L349.878 537.31C345.995 536.007 343.722 531.964 344.625 527.97L344.725 527.57L351.738 502.534L563.586 561.867ZM348.577 528.649C347.982 530.776 349.223 532.984 351.35 533.58L555.495 590.756C557.622 591.351 559.829 590.11 560.425 587.983L565.28 570.65C565.875 568.522 564.634 566.315 562.507 565.719L354.511 507.464L348.577 528.649ZM576.801 514.683C581.055 515.875 583.538 520.29 582.347 524.544L577.492 541.877C576.338 545.999 572.159 548.457 568.031 547.524L567.631 547.423L363.487 490.247L363.093 490.126C359.21 488.822 356.937 484.78 357.84 480.786L357.941 480.386L364.953 455.349L576.801 514.683ZM361.793 481.465C361.197 483.592 362.438 485.799 364.565 486.395L568.71 543.571C570.837 544.167 573.045 542.926 573.64 540.798L578.495 523.465C579.091 521.338 577.849 519.131 575.722 518.535L367.726 460.28L361.793 481.465ZM579.829 419.748C584.14 420.955 587.861 423.068 590.881 426.124L590.882 426.124L590.882 426.125C593.96 429.212 595.974 433.007 596.952 437.387C597.968 441.88 597.65 446.711 596.233 451.773C594.815 456.835 592.577 461.128 589.375 464.439C586.266 467.673 582.576 469.877 578.345 470.931L578.34 470.932C574.172 471.963 569.894 471.828 565.581 470.62C561.512 469.48 557.968 467.547 555.047 464.781L554.471 464.218C551.415 461.119 549.415 457.319 548.44 452.941C547.442 448.457 547.764 443.64 549.177 438.594C550.294 434.608 551.915 431.098 554.11 428.167C552.983 428.548 551.744 428.632 550.51 428.353L549.843 428.185C546.396 427.405 542.907 429.459 541.943 432.9L536.185 453.459C534.993 457.714 530.578 460.197 526.323 459.005L525.246 458.703C520.991 457.512 518.508 453.097 519.7 448.842L525.458 428.283C526.422 424.842 524.506 421.274 521.156 420.15L520.499 419.948C519.27 419.536 518.235 418.794 517.464 417.851C517.836 421.514 517.404 425.376 516.282 429.382C514.864 434.444 512.626 438.736 509.424 442.048C506.315 445.282 502.625 447.485 498.394 448.539L498.389 448.541C494.221 449.572 489.943 449.437 485.63 448.229C481.561 447.089 478.017 445.155 475.096 442.39L474.52 441.826C471.464 438.728 469.464 434.928 468.489 430.549C468.102 428.814 467.916 427.028 467.912 425.199L465.539 433.674C464.347 437.928 459.932 440.411 455.677 439.22L454.517 438.895C450.263 437.703 447.78 433.288 448.971 429.034L450.228 424.545C451.027 421.693 449.362 418.732 446.509 417.933C443.657 417.134 440.696 418.799 439.897 421.652L438.64 426.14C437.448 430.395 433.033 432.878 428.779 431.686L427.599 431.356C423.344 430.164 420.861 425.749 422.053 421.495L426.352 406.146C426.168 406.347 425.981 406.546 425.787 406.74C423.408 409.112 420.491 410.642 417.157 411.343L417.154 411.342C413.778 412.058 410.196 411.789 406.507 410.755C404.51 410.196 402.437 411.362 401.877 413.359L400.982 416.555C399.929 420.316 396.024 422.511 392.263 421.458L390.191 420.878C385.936 419.686 383.453 415.271 384.645 411.016L394.256 376.7C395.448 372.446 399.863 369.963 404.117 371.154L416.843 374.719C420.515 375.747 423.697 377.397 426.182 379.808C428.609 382.145 430.25 384.963 431.009 388.208C431.01 388.212 431.01 388.216 431.011 388.22C431.013 388.225 431.014 388.231 431.016 388.237L431.014 388.238C431.071 388.475 431.121 388.712 431.168 388.95L431.664 387.178C432.856 382.924 437.271 380.441 441.525 381.632L442.705 381.963C446.96 383.155 449.443 387.57 448.251 391.824L447 396.293C446.201 399.145 447.866 402.106 450.718 402.905C453.571 403.704 456.532 402.039 457.331 399.186L458.582 394.718C459.774 390.463 464.189 387.98 468.443 389.172L469.604 389.497C473.858 390.688 476.341 395.103 475.15 399.358L472.782 407.814C473.735 406.251 474.822 404.822 476.053 403.54C479.163 400.302 482.848 398.1 487.072 397.054C491.248 396.008 495.542 396.142 499.878 397.356C504.19 398.564 507.911 400.677 510.931 403.732L510.932 403.733C513.291 406.099 515.022 408.882 516.143 412.025C516.16 411.955 516.177 411.885 516.197 411.815L516.5 410.734C517.662 406.584 521.968 404.162 526.118 405.324L553.303 412.938C557.453 414.1 559.875 418.407 558.713 422.557L558.41 423.638C558.399 423.678 558.385 423.717 558.373 423.757C560.937 421.692 563.826 420.237 567.023 419.446C571.199 418.4 575.493 418.533 579.829 419.748ZM498.8 401.208C495.066 400.162 491.477 400.072 488.033 400.937C484.594 401.788 481.562 403.579 478.938 406.311L478.454 406.834C476.073 409.503 474.281 412.986 473.078 417.281C471.798 421.85 471.57 425.983 472.393 429.68C473.216 433.377 474.875 436.489 477.368 439.016C479.705 441.386 482.588 443.104 486.016 444.172L486.709 444.377C490.416 445.415 493.989 445.508 497.428 444.657C500.885 443.796 503.926 442.001 506.549 439.269C509.187 436.541 511.146 432.885 512.43 428.303C513.633 424.007 513.905 420.099 513.244 416.578L513.1 415.879C512.277 412.182 510.61 409.074 508.099 406.557C505.762 404.187 502.891 402.472 499.487 401.412L498.8 401.208ZM578.751 423.599C575.017 422.554 571.427 422.464 567.984 423.328C564.545 424.179 561.513 425.971 558.889 428.702L558.405 429.225C556.024 431.894 554.232 435.377 553.029 439.673C551.749 444.241 551.521 448.375 552.344 452.072C553.167 455.769 554.826 458.88 557.319 461.408C559.656 463.777 562.539 465.496 565.967 466.563L566.66 466.768C570.367 467.806 573.94 467.9 577.379 467.048C580.836 466.188 583.877 464.392 586.5 461.66C589.138 458.933 591.097 455.277 592.381 450.694C593.584 446.399 593.856 442.49 593.195 438.969L593.051 438.27C592.228 434.573 590.561 431.466 588.05 428.948C585.713 426.579 582.842 424.864 579.438 423.803L578.751 423.599ZM467.945 393.186C465.497 392.5 462.957 393.929 462.272 396.377L460.815 401.579C459.623 405.833 455.208 408.316 450.953 407.125L448.326 406.389C444.072 405.197 441.589 400.782 442.78 396.528L444.234 391.335C444.921 388.882 443.49 386.337 441.037 385.65C438.584 384.963 436.038 386.394 435.351 388.847L426.07 421.983C425.383 424.436 426.815 426.982 429.268 427.669C431.721 428.356 434.267 426.924 434.954 424.471L436.413 419.259C437.605 415.005 442.02 412.522 446.275 413.713L448.902 414.449C453.157 415.641 455.64 420.056 454.448 424.31L452.985 429.532C452.3 431.98 453.728 434.52 456.176 435.206C458.624 435.891 461.164 434.463 461.849 432.015L471.136 398.859C471.821 396.411 470.393 393.871 467.945 393.186ZM406.89 376.085C402.636 374.893 398.221 377.377 397.029 381.631L388.662 411.506C387.975 413.959 389.406 416.504 391.859 417.191C394.312 417.878 396.858 416.447 397.546 413.994L398.209 411.624C399.263 407.862 403.167 405.666 406.928 406.72L407.586 406.904L408.187 407.064C411.177 407.826 413.892 407.948 416.334 407.429C418.788 406.913 420.883 405.849 422.62 404.237L422.961 403.908C424.763 402.112 426.054 399.818 426.836 397.027C427.617 394.237 427.712 391.609 427.119 389.142C426.545 386.665 425.305 384.51 423.399 382.678C421.615 380.948 419.267 379.636 416.354 378.744L415.765 378.57L406.89 376.085ZM525.039 409.176C523.017 408.609 520.918 409.79 520.351 411.813C519.785 413.835 520.965 415.934 522.988 416.5L525.758 417.276C529.31 418.271 531.383 421.958 530.389 425.51L523.703 449.382C523.023 451.807 524.439 454.323 526.863 455.003C529.288 455.682 531.805 454.266 532.484 451.842L539.17 427.969C540.165 424.417 543.851 422.344 547.404 423.339L550.173 424.114C552.196 424.681 554.295 423.501 554.861 421.478C555.428 419.456 554.247 417.356 552.224 416.79L525.039 409.176ZM496.997 409.184C498.96 409.801 500.554 410.814 501.778 412.221C503.083 413.722 503.888 415.615 504.193 417.898C504.511 420.185 504.254 422.812 503.423 425.78C502.592 428.749 501.446 431.128 499.986 432.917C498.54 434.71 496.869 435.909 494.974 436.514L494.618 436.62C492.826 437.116 490.923 437.083 488.91 436.519L488.512 436.401C486.679 435.825 485.168 434.905 483.98 433.64L483.731 433.365C482.425 431.863 481.613 429.969 481.295 427.682C480.991 425.399 481.254 422.772 482.085 419.804C482.916 416.836 484.055 414.456 485.502 412.663C486.87 410.986 488.43 409.829 490.181 409.192L490.535 409.072C492.43 408.467 494.451 408.465 496.599 409.067L496.997 409.184ZM576.948 431.576C578.911 432.192 580.505 433.205 581.729 434.612C583.034 436.114 583.839 438.006 584.144 440.289C584.462 442.576 584.205 445.204 583.374 448.172C582.543 451.14 581.397 453.519 579.937 455.308C578.491 457.101 576.82 458.3 574.925 458.905L574.569 459.011C572.777 459.508 570.874 459.474 568.861 458.911L568.463 458.792C566.63 458.216 565.119 457.296 563.931 456.032L563.682 455.756C562.376 454.255 561.565 452.36 561.246 450.073C560.942 447.79 561.205 445.164 562.036 442.196C562.867 439.228 564.007 436.847 565.453 435.055C566.821 433.378 568.381 432.22 570.132 431.584L570.486 431.463C572.381 430.859 574.402 430.857 576.55 431.458L576.948 431.576ZM495.52 412.918C494.031 412.501 492.813 412.543 491.75 412.882C490.706 413.215 489.651 413.905 488.6 415.192C487.595 416.445 486.665 418.283 485.937 420.883C485.208 423.483 485.048 425.537 485.257 427.13C485.486 428.775 486.03 429.913 486.749 430.74C487.481 431.582 488.5 432.25 489.989 432.667C491.477 433.084 492.695 433.042 493.757 432.703C494.795 432.371 495.839 431.687 496.873 430.405L496.88 430.396L496.887 430.388C497.904 429.142 498.841 427.308 499.571 424.702C500.255 422.258 500.431 420.3 500.268 418.753L500.231 418.45L500.229 418.438L500.228 418.427C500.01 416.794 499.473 415.667 498.759 414.845C498.027 414.003 497.008 413.335 495.52 412.918ZM575.471 435.31C573.982 434.893 572.764 434.934 571.701 435.273C570.657 435.607 569.602 436.297 568.551 437.584C567.546 438.837 566.616 440.674 565.888 443.274C565.159 445.875 564.999 447.929 565.208 449.522C565.437 451.167 565.981 452.304 566.7 453.131C567.432 453.973 568.451 454.642 569.94 455.059C571.428 455.476 572.646 455.433 573.708 455.094C574.746 454.763 575.79 454.078 576.824 452.797L576.831 452.787L576.838 452.779C577.855 451.534 578.792 449.699 579.522 447.093C580.206 444.65 580.382 442.691 580.219 441.144L580.182 440.841L580.18 440.829L580.179 440.818C579.961 439.186 579.424 438.058 578.71 437.236C577.978 436.395 576.959 435.727 575.471 435.31ZM412.027 385.357C413.751 385.84 415.091 386.532 416.048 387.434C417.008 388.323 417.615 389.371 417.867 390.577C418.136 391.774 418.075 393.07 417.685 394.464C417.298 395.846 416.675 396.992 415.815 397.902C414.973 398.802 413.907 399.396 412.617 399.683L412.376 399.73C411.319 399.918 410.119 399.855 408.774 399.543L408.143 399.382C404.812 398.449 402.868 394.992 403.801 391.661L404.358 389.67C405.285 386.361 408.719 384.43 412.027 385.357ZM410.948 389.209C409.767 388.878 408.541 389.568 408.21 390.749L407.652 392.74C407.315 393.943 408.018 395.193 409.222 395.53C410.506 395.89 411.303 395.871 411.75 395.777C412.312 395.651 412.644 395.437 412.895 395.168L412.902 395.162L412.908 395.155C413.261 394.781 413.595 394.234 413.833 393.386C414.047 392.623 414.064 392.056 413.998 391.631L413.965 391.456L413.951 391.395C413.889 391.097 413.76 390.813 413.468 390.504L413.332 390.371L413.317 390.358L413.303 390.345C413 390.058 412.431 389.685 411.413 389.35L410.948 389.209Z" fill="white"/>
<path d="M789.306 785.804C793.719 786.025 797.117 789.781 796.896 794.194L788.845 954.992C788.63 959.267 785.099 962.589 780.867 962.592L780.454 962.582L352.99 941.179L352.579 941.147C348.504 940.735 345.393 937.296 345.39 933.201L345.4 932.789L353.451 771.99C353.672 767.577 357.429 764.179 361.842 764.4L789.306 785.804ZM353.39 933.189L387.348 934.889L395.399 774.09L361.441 772.39L353.39 933.189ZM395.338 935.289L676.985 949.391L685.036 788.593L403.389 774.49L395.338 935.289ZM684.975 949.792L780.855 954.592L788.906 793.794L693.026 788.993L684.975 949.792ZM591.395 899.048C593.602 899.159 595.301 901.037 595.19 903.243C595.08 905.45 593.201 907.149 590.995 907.038L482.131 901.587C479.925 901.477 478.226 899.599 478.337 897.392C478.447 895.186 480.325 893.487 482.532 893.597L591.395 899.048ZM759.186 897.437C760.565 897.506 761.627 898.68 761.558 900.059C761.488 901.438 760.315 902.5 758.936 902.431L712.993 900.131C711.614 900.062 710.552 898.888 710.621 897.509C710.69 896.13 711.864 895.068 713.243 895.137L759.186 897.437ZM759.186 887.425C760.841 887.508 762.115 888.916 762.033 890.571C761.95 892.226 760.541 893.5 758.886 893.417L713.943 891.167C712.288 891.084 711.014 889.675 711.096 888.021C711.179 886.366 712.588 885.092 714.243 885.174L759.186 887.425ZM627.552 876.829C629.758 876.939 631.457 878.817 631.347 881.024C631.236 883.23 629.358 884.929 627.152 884.819L450.373 875.967C448.167 875.857 446.468 873.978 446.578 871.772C446.689 869.566 448.567 867.867 450.773 867.977L627.552 876.829ZM759.686 877.437C761.341 877.52 762.616 878.929 762.533 880.584C762.45 882.238 761.041 883.513 759.386 883.43L714.443 881.179C712.788 881.097 711.514 879.688 711.597 878.033C711.679 876.378 713.088 875.104 714.743 875.187L759.686 877.437ZM761.984 871.545C762.536 871.572 762.96 872.042 762.933 872.594C762.905 873.145 762.436 873.57 761.884 873.542L712.945 871.092C712.394 871.064 711.969 870.595 711.997 870.043C712.024 869.492 712.494 869.067 713.045 869.094L761.984 871.545ZM594.794 851.158C597.001 851.269 598.7 853.147 598.589 855.353C598.479 857.56 596.601 859.259 594.394 859.148L485.531 853.697C483.324 853.587 481.625 851.709 481.736 849.502C481.846 847.296 483.724 845.597 485.931 845.707L594.794 851.158ZM761.835 864.529C762.662 864.57 763.299 865.274 763.258 866.102C763.216 866.929 762.512 867.566 761.685 867.525L713.745 865.124C712.917 865.083 712.28 864.379 712.322 863.551C712.363 862.724 713.067 862.087 713.895 862.128L761.835 864.529ZM761.735 856.514C762.839 856.569 763.688 857.508 763.633 858.611C763.578 859.714 762.638 860.564 761.535 860.509L714.594 858.158C713.491 858.103 712.642 857.164 712.697 856.061C712.752 854.957 713.691 854.108 714.794 854.163L761.735 856.514ZM466.459 794.67C468.665 794.78 470.364 796.659 470.254 798.865C470.143 801.071 468.265 802.77 466.059 802.66L423.112 800.509C420.906 800.399 419.207 798.521 419.317 796.314C419.428 794.108 421.306 792.409 423.513 792.519L466.459 794.67ZM530.379 797.87C532.585 797.981 534.284 799.859 534.174 802.065C534.063 804.272 532.185 805.971 529.979 805.86L487.032 803.71C484.826 803.599 483.127 801.721 483.237 799.515C483.348 797.309 485.226 795.609 487.432 795.72L530.379 797.87Z" fill="white"/>
<path d="M629.403 294.69C626.03 297.543 620.982 297.121 618.129 293.748L514.166 170.814C511.402 167.546 511.712 162.707 514.801 159.814L515.108 159.54L841.913 -116.834L842.235 -117.092C845.492 -119.575 850.114 -119.189 852.913 -116.199L853.188 -115.892L957.151 7.04189C960.004 10.4155 959.582 15.4632 956.208 18.3163L629.403 294.69ZM847.079 -110.726L821.118 -88.7709L925.081 34.1627L951.042 12.2078L847.079 -110.726ZM815.01 -83.605L599.685 98.4919L703.648 221.426L918.973 39.3286L815.01 -83.605ZM593.576 103.658L520.274 165.648L624.237 288.582L697.539 226.591L593.576 103.658ZM696.582 76.7912C694.895 78.2178 692.371 78.0067 690.945 76.3199C689.518 74.6331 689.729 72.1093 691.416 70.6827L774.645 0.297755C776.331 -1.12876 778.855 -0.917745 780.282 0.76907C781.708 2.45589 781.497 4.97974 779.81 6.40626L696.582 76.7912ZM575.143 192.587C574.088 193.479 572.511 193.347 571.619 192.293C570.728 191.238 570.86 189.661 571.914 188.769L607.038 159.066C608.092 158.174 609.67 158.306 610.561 159.36C611.453 160.415 611.321 161.992 610.267 162.884L575.143 192.587ZM581.982 199.9C580.717 200.97 578.824 200.812 577.754 199.547C576.684 198.281 576.842 196.389 578.107 195.319L612.468 166.261C613.733 165.191 615.626 165.349 616.696 166.614C617.766 167.879 617.607 169.772 616.342 170.842L581.982 199.9ZM685.355 117.717C683.668 119.144 681.144 118.933 679.718 117.246C678.291 115.559 678.502 113.035 680.189 111.609L815.34 -2.68596C817.027 -4.11247 819.55 -3.90146 820.977 -2.21464C822.403 -0.527827 822.192 1.99603 820.506 3.42254L685.355 117.717ZM588.439 207.536C587.174 208.606 585.281 208.447 584.211 207.182C583.141 205.917 583.3 204.024 584.565 202.954L618.925 173.896C620.19 172.826 622.083 172.985 623.153 174.25C624.223 175.515 624.065 177.408 622.799 178.478L588.439 207.536ZM590.786 213.409C590.365 213.765 589.734 213.712 589.377 213.291C589.021 212.869 589.073 212.238 589.495 211.881L626.91 180.24C627.331 179.884 627.962 179.937 628.319 180.358C628.675 180.78 628.623 181.411 628.201 181.768L590.786 213.409ZM726.814 114.088C725.127 115.514 722.603 115.303 721.177 113.617C719.75 111.93 719.961 109.406 721.648 107.979L804.876 37.5945C806.563 36.168 809.087 36.379 810.513 38.0658C811.94 39.7526 811.729 42.2765 810.042 43.703L726.814 114.088ZM595.688 218.431C595.056 218.966 594.109 218.886 593.574 218.254C593.039 217.621 593.119 216.675 593.751 216.14L630.402 185.145C631.035 184.61 631.981 184.689 632.516 185.321C633.051 185.954 632.972 186.9 632.339 187.435L595.688 218.431ZM601.236 224.216C600.393 224.929 599.131 224.824 598.417 223.981C597.704 223.137 597.81 221.875 598.653 221.162L634.541 190.812C635.384 190.099 636.646 190.205 637.359 191.048C638.072 191.892 637.967 193.153 637.123 193.867L601.236 224.216ZM859.127 67.675C857.44 69.1015 854.916 68.8905 853.49 67.2037C852.063 65.5169 852.274 62.993 853.961 61.5665L886.794 33.7999C888.481 32.3734 891.005 32.5844 892.432 34.2712C893.858 35.9581 893.647 38.4819 891.96 39.9084L859.127 67.675ZM810.259 109.002C808.572 110.428 806.048 110.217 804.622 108.531C803.195 106.844 803.406 104.32 805.093 102.893L837.926 75.1269C839.613 73.7004 842.137 73.9114 843.564 75.5982C844.99 77.285 844.779 79.8089 843.092 81.2354L810.259 109.002Z" fill="white"/>
<path d="M485.202 -39.2743C489.603 -39.6751 493.494 -36.4331 493.895 -32.033L508.5 128.303C508.888 132.566 505.858 136.351 501.668 136.948L501.258 136.996L75.023 175.82L74.6116 175.847C70.5194 176.011 66.9561 173.043 66.3783 168.989L66.3302 168.579L51.7257 8.2429C51.3249 3.84283 54.567 -0.0490245 58.967 -0.449813L485.202 -39.2743ZM74.2973 167.853L108.157 164.769L93.5525 4.43301L59.6927 7.5172L74.2973 167.853ZM116.124 164.044L396.961 138.463L382.357 -21.8733L101.52 3.70732L116.124 164.044ZM404.928 137.737L500.533 129.029L485.928 -31.3073L390.324 -22.599L404.928 137.737ZM305.152 100.635C307.352 100.435 309.298 102.056 309.498 104.256C309.698 106.456 308.077 108.402 305.877 108.602L197.327 118.49C195.127 118.69 193.181 117.069 192.98 114.869C192.78 112.669 194.401 110.723 196.601 110.523L305.152 100.635ZM471.054 75.4822C472.429 75.357 473.645 76.3701 473.77 77.7451C473.896 79.1201 472.882 80.3364 471.507 80.4616L425.697 84.6343C424.322 84.7596 423.106 83.7464 422.981 82.3714C422.855 80.9964 423.869 79.7802 425.244 79.6549L471.054 75.4822ZM469.649 65.5688C471.299 65.4185 472.758 66.6343 472.909 68.2843C473.059 69.9343 471.843 71.3938 470.193 71.5441L425.379 75.6261C423.729 75.7764 422.269 74.5606 422.119 72.9106C421.969 71.2606 423.184 69.8011 424.834 69.6508L469.649 65.5688ZM337.83 73.5592C340.03 73.3588 341.976 74.9798 342.177 77.1799C342.377 79.3799 340.756 81.3258 338.556 81.5262L162.286 97.5822C160.086 97.7826 158.14 96.1615 157.939 93.9615C157.739 91.7615 159.36 89.8155 161.56 89.6151L337.83 73.5592ZM468.742 55.61C470.392 55.4597 471.851 56.6755 472.001 58.3255C472.152 59.9755 470.936 61.435 469.286 61.5853L424.471 65.6673C422.821 65.8176 421.362 64.6018 421.212 62.9518C421.061 61.3018 422.277 59.8423 423.927 59.692L468.742 55.61ZM470.189 49.4533C470.739 49.4032 471.226 49.8085 471.276 50.3585C471.326 50.9085 470.921 51.395 470.371 51.4451L421.573 55.89C421.023 55.9401 420.536 55.5348 420.486 54.9848C420.436 54.4348 420.841 53.9483 421.391 53.8982L470.189 49.4533ZM301.793 52.7423C303.993 52.542 305.939 54.163 306.14 56.363C306.34 58.563 304.719 60.509 302.519 60.7094L193.968 70.5969C191.768 70.7973 189.822 69.1763 189.622 66.9763C189.422 64.7762 191.043 62.8303 193.243 62.6299L301.793 52.7423ZM469.056 42.5276C469.881 42.4524 470.611 43.0603 470.686 43.8853C470.761 44.7103 470.153 45.44 469.328 45.5152L421.526 49.8693C420.701 49.9445 419.972 49.3366 419.896 48.5116C419.821 47.6866 420.429 46.9569 421.254 46.8817L469.056 42.5276ZM467.833 34.6059C468.933 34.5057 469.906 35.3162 470.006 36.4162C470.106 37.5162 469.295 38.4892 468.195 38.5894L421.389 42.8528C420.289 42.953 419.316 42.1425 419.216 41.0425C419.116 39.9425 419.926 38.9695 421.026 38.8693L467.833 34.6059ZM166.798 14.8317C168.998 14.6313 170.944 16.2523 171.144 18.4524C171.345 20.6524 169.724 22.5983 167.523 22.7987L124.701 26.6993C122.501 26.8997 120.555 25.2787 120.354 23.0786C120.154 20.8786 121.775 18.9327 123.975 18.7323L166.798 14.8317ZM230.534 9.02616C232.734 8.82576 234.68 10.4468 234.88 12.6468C235.081 14.8469 233.46 16.7928 231.26 16.9932L188.437 20.8938C186.237 21.0942 184.291 19.4731 184.091 17.2731C183.89 15.0731 185.511 13.1271 187.711 12.9268L230.534 9.02616Z" fill="white"/>
<path d="M888.265 589.588C892.671 589.263 896.506 592.572 896.831 596.979L905.059 708.676C905.374 712.944 902.279 716.677 898.079 717.201L897.669 717.242L634.382 736.638L633.971 736.657C629.739 736.754 626.131 733.515 625.816 729.247L617.588 617.55C617.263 613.143 620.572 609.308 624.978 608.984L888.265 589.588ZM633.795 728.659L659.724 726.749L651.496 615.052L625.566 616.962L633.795 728.659ZM667.703 726.161L858.187 712.129L849.958 600.432L659.474 614.464L667.703 726.161ZM866.165 711.541L897.081 709.264L888.853 597.566L857.936 599.844L866.165 711.541ZM816.778 673.273C817.635 673.203 818.386 673.842 818.456 674.7L820.78 703.265C820.849 704.123 820.211 704.874 819.353 704.944C818.496 705.014 817.745 704.375 817.675 703.518L815.351 674.952C815.281 674.095 815.92 673.343 816.778 673.273ZM822.677 672.794C823.706 672.71 824.607 673.476 824.691 674.505L826.964 702.449C827.048 703.478 826.282 704.381 825.253 704.464C824.224 704.548 823.323 703.781 823.239 702.752L820.965 674.808C820.882 673.779 821.648 672.877 822.677 672.794ZM828.887 672.288C829.916 672.204 830.818 672.97 830.901 673.999L833.175 701.944C833.259 702.973 832.492 703.874 831.463 703.958C830.434 704.041 829.533 703.276 829.449 702.247L827.176 674.302C827.093 673.273 827.858 672.372 828.887 672.288ZM833.855 671.884C834.198 671.856 834.498 672.112 834.526 672.454L837.002 702.883C837.03 703.226 836.774 703.527 836.431 703.555C836.088 703.583 835.788 703.327 835.76 702.984L833.284 672.556C833.256 672.213 833.512 671.912 833.855 671.884ZM837.892 671.556C838.406 671.515 838.857 671.897 838.899 672.411L841.323 702.219C841.365 702.733 840.982 703.184 840.468 703.226C839.954 703.268 839.503 702.885 839.461 702.371L837.036 672.563C836.994 672.049 837.378 671.598 837.892 671.556ZM842.549 671.177C843.235 671.121 843.836 671.632 843.892 672.318L846.266 701.504C846.322 702.19 845.811 702.791 845.126 702.847C844.44 702.902 843.838 702.392 843.782 701.706L841.408 672.519C841.352 671.834 841.863 671.233 842.549 671.177ZM792.356 648.794C796.762 648.47 800.597 651.779 800.922 656.185L801.436 663.166C801.761 667.572 798.452 671.408 794.045 671.732L726.229 676.728C721.823 677.053 717.988 673.744 717.663 669.337L717.149 662.356C716.824 657.95 720.133 654.115 724.539 653.79L792.356 648.794Z" fill="white"/>
</g>
<defs>
<clipPath id="clip0_199_2329">
<rect width="761" height="982" fill="white"/>
</clipPath>
</defs>
</svg>
